<svg width="70" height="70" viewBox="0 0 70 70" fill="none" xmlns="http://www.w3.org/2000/svg">
<path d="M60.1162 31.0241H58.1266V30.7639C58.1266 24.5325 52.9727 19.4578 46.6441 19.4578H36.1013V15.7349C38.6122 15.2289 40.5063 13.0386 40.5063 10.4217C40.5063 7.42892 38.0395 5 35 5C31.9605 5 29.4937 7.42892 29.4937 10.4217C29.4937 13.0386 31.3878 15.2289 33.8987 15.7349V19.4578H23.356C17.0273 19.4578 11.8734 24.5325 11.8734 30.7639V31.0241H9.8838C7.74 31.0241 6 32.7374 6 34.8482V43.8265C6 45.9373 7.74 47.6506 9.8838 47.6506H11.8734V47.9108C11.8734 54.1422 17.0273 59.2169 23.356 59.2169H23.6203V63.9157C23.6203 64.5157 24.1122 65 24.7215 65C25.3309 65 25.8228 64.5157 25.8228 63.9157V59.2169H44.1772V63.9157C44.1772 64.5157 44.6691 65 45.2785 65C45.8878 65 46.3797 64.5157 46.3797 63.9157V59.2169H46.6441C52.9727 59.2169 58.1266 54.1422 58.1266 47.9108V47.6506H60.1162C62.26 47.6506 64 45.9373 64 43.8265V34.8482C64 32.7374 62.2527 31.0241 60.1162 31.0241ZM31.6962 10.4217C31.6962 8.62892 33.1792 7.16867 35 7.16867C36.8208 7.16867 38.3038 8.62892 38.3038 10.4217C38.3038 12.2145 36.8208 13.6747 35 13.6747C33.1792 13.6747 31.6962 12.2145 31.6962 10.4217ZM9.8838 45.4819C8.95873 45.4819 8.20253 44.7374 8.20253 43.8265V34.8482C8.20253 33.9373 8.95873 33.1928 9.8838 33.1928H11.8734V45.4819H9.8838ZM55.9241 47.9108C55.9241 52.9494 51.7613 57.0482 46.6441 57.0482H45.2785H24.7215H23.356C18.2387 57.0482 14.0759 52.9494 14.0759 47.9108V46.5663V32.1084V30.7639C14.0759 25.7253 18.2387 21.6265 23.356 21.6265H46.6441C51.7613 21.6265 55.9241 25.7253 55.9241 30.7639V32.1084V46.5663V47.9108ZM61.7975 43.8265C61.7975 44.7374 61.0413 45.4819 60.1162 45.4819H58.1266V33.1928H60.1162C61.0413 33.1928 61.7975 33.9373 61.7975 34.8482V43.8265ZM31.6962 35.7229C31.6962 33.1349 29.5524 31.0241 26.924 31.0241C24.2957 31.0241 22.1519 33.1349 22.1519 35.7229C22.1519 38.3108 24.2957 40.4217 26.924 40.4217C29.5524 40.4217 31.6962 38.3108 31.6962 35.7229ZM26.924 38.253C25.5071 38.253 24.3544 37.1181 24.3544 35.7229C24.3544 34.3277 25.5071 33.1928 26.924 33.1928C28.341 33.1928 29.4937 34.3277 29.4937 35.7229C29.4937 37.1181 28.341 38.253 26.924 38.253ZM43.076 31.0241C40.4476 31.0241 38.3038 33.1349 38.3038 35.7229C38.3038 38.3108 40.4476 40.4217 43.076 40.4217C45.7043 40.4217 47.8481 38.3108 47.8481 35.7229C47.8481 33.1349 45.7043 31.0241 43.076 31.0241ZM43.076 38.253C41.659 38.253 40.5063 37.1181 40.5063 35.7229C40.5063 34.3277 41.659 33.1928 43.076 33.1928C44.4929 33.1928 45.6456 34.3277 45.6456 35.7229C45.6456 37.1181 44.4929 38.253 43.076 38.253ZM41.9747 48.012C41.9747 48.612 41.4828 49.0964 40.8734 49.0964H29.1266C28.5172 49.0964 28.0253 48.612 28.0253 48.012C28.0253 47.412 28.5172 46.9277 29.1266 46.9277H40.8734C41.4754 46.9277 41.9747 47.412 41.9747 48.012Z" fill="#9747FF"/>
</svg>
