<svg width="64" height="64" viewBox="0 0 64 64" fill="none" xmlns="http://www.w3.org/2000/svg">
<circle cx="31.9444" cy="31.9444" r="31.9444" fill="white"/>
<path d="M41.6943 32.632C35.9593 32.632 31.2881 27.8345 31.2881 21.9445C31.2881 21.2913 30.7678 20.757 30.1318 20.757C29.4959 20.757 28.9756 21.2913 28.9756 21.9445C28.9756 27.8345 24.3043 32.632 18.5693 32.632C17.9334 32.632 17.4131 33.1663 17.4131 33.8195C17.4131 34.4726 17.9334 35.007 18.5693 35.007C24.3043 35.007 28.9756 39.8045 28.9756 45.6945C28.9756 46.3476 29.4959 46.882 30.1318 46.882C30.7678 46.882 31.2881 46.3476 31.2881 45.6945C31.2881 39.8045 35.9593 35.007 41.6943 35.007C42.3303 35.007 42.8506 34.4726 42.8506 33.8195C42.8506 33.1663 42.3303 32.632 41.6943 32.632Z" fill="#B8C0E0"/>
<path d="M46.3193 21.3507C44.0878 21.3507 42.2725 19.4863 42.2725 17.1945C42.2725 16.5413 41.7521 16.007 41.1162 16.007C40.4803 16.007 39.96 16.5413 39.96 17.1945C39.96 19.4863 38.1446 21.3507 35.9131 21.3507C35.2771 21.3507 34.7568 21.8851 34.7568 22.5382C34.7568 23.1913 35.2771 23.7257 35.9131 23.7257C38.1446 23.7257 39.96 25.5901 39.96 27.882C39.96 28.5351 40.4803 29.0695 41.1162 29.0695C41.7521 29.0695 42.2725 28.5351 42.2725 27.882C42.2725 25.5901 44.0878 23.7257 46.3193 23.7257C46.9553 23.7257 47.4756 23.1913 47.4756 22.5382C47.4756 21.8851 46.9553 21.3507 46.3193 21.3507Z" fill="#FF09F4"/>
</svg>
