<svg width="70" height="70" viewBox="0 0 70 70" fill="none" xmlns="http://www.w3.org/2000/svg">
<path fill-rule="evenodd" clip-rule="evenodd" d="M1.34789 32.2948C2.04565 32.326 2.58798 32.9135 2.55688 33.6112C2.41582 36.8956 2.78415 40.1921 3.64379 43.4003C6.31001 53.3505 13.3258 61.2621 22.8928 65.1132C29.448 67.7553 36.5448 68.1844 43.3928 66.3495C52.4636 63.9189 59.8876 57.8188 64.0393 49.4716L58.47 50.9638C57.7943 51.1447 57.1023 50.7458 56.9211 50.0702C56.74 49.3944 57.1398 48.7025 57.8157 48.5214L65.9582 46.3397C66.634 46.1587 67.3259 46.5575 67.5071 47.2333L69.6887 55.3759C69.8698 56.0516 69.4707 56.7434 68.7952 56.9247C68.1195 57.1057 67.4276 56.7067 67.2463 56.0311L65.9631 51.2431C61.4344 59.9095 53.5902 66.2348 44.0471 68.7919C36.6617 70.7708 29.0248 70.3128 21.9426 67.4628C11.6322 63.3134 4.07389 54.7785 1.20043 44.0546C0.273211 40.5941 -0.119546 37.0428 0.0314854 33.5028C0.0626821 32.8051 0.650256 32.2638 1.34789 32.2948ZM30.6721 12.1669C32.1785 11.7632 33.7487 12.4419 34.4856 13.8241L35.9123 16.5136C36.0369 16.7506 36.273 16.914 36.5227 16.9345C37.0859 16.9843 37.6561 17.059 38.2161 17.162C38.4642 17.2089 38.7345 17.1103 38.9172 16.913L40.9895 14.6815C42.0622 13.5388 43.7559 13.2773 45.1106 14.0663L48.0832 15.7831C49.4379 16.5721 50.0638 18.1587 49.6106 19.6591L48.717 22.578C48.6376 22.8347 48.6873 23.118 48.8518 23.3095C49.2128 23.7449 49.5601 24.1932 49.887 24.664C50.0294 24.8701 50.2893 24.9928 50.5569 24.9823L53.5998 24.8739C55.1631 24.8129 56.5358 25.833 56.9416 27.3475L57.8323 30.6698C58.2378 32.1841 57.5569 33.7454 56.175 34.4823L53.4788 35.9198C53.2418 36.0444 53.0783 36.2805 53.0579 36.5302C53.008 37.0933 52.9343 37.6635 52.8313 38.2235C52.7844 38.4717 52.883 38.742 53.0803 38.9247L55.3108 40.997C56.4535 42.0697 56.7069 43.7655 55.926 45.1181L54.2151 48.0809C53.4282 49.4436 51.8415 50.0696 50.3391 49.6083L47.4289 48.7118C47.1721 48.6324 46.8889 48.6828 46.6975 48.8475C46.2641 49.2167 45.8077 49.5658 45.345 49.8905C45.1388 50.033 45.016 50.2927 45.0266 50.5604L45.135 53.6034C45.196 55.1665 44.1766 56.5393 42.6623 56.9452L39.3401 57.8358C37.8337 58.2395 36.2635 57.5598 35.5266 56.1776L34.0989 53.4882C33.9742 53.2512 33.7382 53.0876 33.4885 53.0673C32.9277 53.0256 32.3579 52.9515 31.7981 52.8485C31.5499 52.8016 31.2796 52.9002 31.0969 53.0975L29.0139 55.3222C27.9412 56.4649 26.2463 56.7182 24.8938 55.9374L21.928 54.2186C20.5675 53.4399 19.9393 51.8451 20.4006 50.3427L21.2971 47.4325C21.3766 47.1756 21.327 46.8916 21.1623 46.7001C20.7953 46.2748 20.4453 45.8185 20.1184 45.3475C19.9758 45.1416 19.716 45.0195 19.4485 45.0302L16.4055 45.1386C14.8424 45.1994 13.4695 44.1793 13.0637 42.6649L12.1741 39.3427C11.7683 37.8282 12.4492 36.2671 13.8313 35.5302L16.5188 34.0946C16.7558 33.97 16.9192 33.7339 16.9397 33.4843C16.9792 32.9151 17.0532 32.3447 17.1584 31.7929C17.2052 31.5447 17.1067 31.2744 16.9094 31.0917L14.677 29.0106C13.5365 27.9461 13.2829 26.2518 14.0637 24.8993L15.7805 21.9257C16.5613 20.5733 18.1556 19.945 19.6477 20.4003L22.5832 21.2899C22.8401 21.3693 23.1233 21.3189 23.3147 21.1542C23.7481 20.785 24.2023 20.4278 24.6672 20.1112C24.8733 19.9687 24.9962 19.7089 24.9856 19.4413L24.8772 16.3983C24.8163 14.8352 25.8355 13.4624 27.3498 13.0565L30.6721 12.1669ZM32.2375 15.0106C32.06 14.6744 31.6742 14.5072 31.3079 14.6054L27.9866 15.496C27.6202 15.5942 27.3695 15.9314 27.384 16.3114L27.4924 19.3544C27.5361 20.4945 27.0084 21.5521 26.0891 22.1913C25.6909 22.4638 25.2987 22.7611 24.9299 23.078C24.0773 23.8039 22.9178 24.0362 21.8245 23.7011L18.9075 22.8153C18.5458 22.7029 18.152 22.8611 17.9612 23.1913L16.2444 26.1649C16.0537 26.4953 16.1117 26.9069 16.3899 27.164L18.6233 29.245C19.4603 30.0242 19.8391 31.1447 19.637 32.246C19.555 32.7218 19.4854 33.2121 19.4485 33.6932C19.3548 34.8092 18.7028 35.7957 17.6936 36.328L15.0061 37.7636C14.6698 37.9409 14.5019 38.326 14.5998 38.6923L15.4905 42.0145C15.5886 42.3809 15.9259 42.6315 16.3059 42.6171L19.3489 42.5077C20.4913 42.4721 21.5476 42.9924 22.1868 43.912C22.4696 44.3162 22.7643 44.7004 23.0813 45.0692C23.4003 45.4461 23.62 45.8758 23.7444 46.3397C23.9014 46.9259 23.8982 47.5639 23.7063 48.1825L22.8108 51.0936C22.7005 51.4634 22.8556 51.8491 23.1858 52.0399L26.1516 53.7587C26.482 53.9494 26.9024 53.8895 27.1594 53.6112L29.2424 51.3856C29.973 50.6011 31.0031 50.2198 32.0364 50.3417L32.968 50.4823C33.2089 50.5148 33.4493 50.542 33.6897 50.5604C34.8057 50.6541 35.7922 51.3069 36.3245 52.3163L37.7522 55.0057C37.9297 55.3421 38.3155 55.5092 38.6819 55.411L42.0032 54.5204C42.3696 54.4222 42.6203 54.0851 42.6057 53.705L42.4973 50.662C42.4618 49.5197 42.9813 48.4642 43.9006 47.8251C44.2967 47.5444 44.689 47.2475 45.0579 46.9306C45.9106 46.2046 47.0786 45.9702 48.1721 46.3056L51.0823 47.2011C51.4522 47.3114 51.8378 47.1554 52.0286 46.8251L53.7395 43.8622C53.9302 43.5319 53.8702 43.1115 53.592 42.8544L51.3606 40.7811C50.5236 40.0018 50.1427 38.8737 50.345 37.7724C50.4269 37.2966 50.4965 36.8062 50.5334 36.3251C50.6273 35.2093 51.2792 34.2235 52.2883 33.6913L54.9836 32.2528C55.32 32.0754 55.4879 31.6905 55.3899 31.3241L54.4993 28.0018C54.4011 27.6355 54.0638 27.3859 53.6838 27.4003L50.6409 27.5087C49.4984 27.5443 48.4421 27.024 47.803 26.1044C47.5305 25.7062 47.2333 25.3141 46.9163 24.9452C46.1987 24.0903 45.9589 22.933 46.2942 21.8397L47.1877 18.9208C47.298 18.5509 47.142 18.1652 46.8118 17.9745L43.8381 16.2577C43.5078 16.067 43.0874 16.1268 42.8303 16.4052L40.758 18.6366C39.9787 19.4738 38.8498 19.8545 37.7483 19.6522C37.2706 19.5622 36.7809 19.4928 36.3 19.4559C35.1842 19.3623 34.1976 18.7102 33.6653 17.7011L32.2375 15.0106ZM32.4836 25.6356C37.646 24.2525 42.9734 27.3287 44.3567 32.4911C45.7399 37.6534 42.6644 42.9807 37.5022 44.3641C32.3398 45.7474 27.0116 42.6719 25.6282 37.5097C24.2449 32.3472 27.3212 27.0189 32.4836 25.6356ZM41.9143 33.1454C40.891 29.3265 36.9568 27.0557 33.1379 28.079C29.3192 29.1023 27.0484 33.0356 28.0715 36.8544C29.0948 40.6732 33.0281 42.9448 36.8469 41.9218C40.6658 40.8985 42.9376 36.9643 41.9143 33.1454ZM25.9377 1.2079C33.3231 -0.771014 40.961 -0.311997 48.0432 2.53798C58.3532 6.68736 65.9109 15.2217 68.7844 25.9452C69.7117 29.4058 70.1054 32.9578 69.9543 36.4979C69.923 37.1957 69.3347 37.7371 68.637 37.7059C67.9392 37.6747 67.3977 37.0864 67.4289 36.3886C67.57 33.1045 67.2016 29.8085 66.342 26.6005C63.6759 16.6503 56.66 8.73771 47.093 4.88661C40.5297 2.24674 33.4409 1.81642 26.593 3.65126C17.5221 6.08181 10.0891 12.184 5.94555 20.5292L11.5149 19.036C12.1907 18.8549 12.8826 19.2547 13.0637 19.9306C13.2447 20.6063 12.8458 21.2981 12.1702 21.4794L4.0266 23.661C3.35089 23.8418 2.65981 23.4422 2.47875 22.7665L0.296134 14.6239C0.115264 13.9482 0.514935 13.2561 1.19067 13.0751C1.86647 12.8941 2.55841 13.2938 2.73949 13.9696L4.0227 18.7577C8.55137 10.0912 16.3947 3.76504 25.9377 1.2079Z" fill="url(#paint0_linear_683_1438)"/>
<defs>
<linearGradient id="paint0_linear_683_1438" x1="35.2629" y1="69.9997" x2="29.9489" y2="2.65603" gradientUnits="userSpaceOnUse">
<stop stop-color="#1BAC98"/>
<stop offset="1" stop-color="#7EEDCD"/>
</linearGradient>
</defs>
</svg>
