<svg width="63" height="70" viewBox="0 0 63 70" fill="none" xmlns="http://www.w3.org/2000/svg">
<path fill-rule="evenodd" clip-rule="evenodd" d="M30.8197 49.9795C32.3724 49.9795 33.8415 50.3367 35.1507 50.9717C36.2658 51.4637 37.2928 52.1587 38.1712 53.0371C40.0342 54.9002 41.0827 57.4258 41.0863 60.0605C41.0863 62.0263 40.5036 63.9485 39.4115 65.583C38.3194 67.2174 36.7666 68.4909 34.9505 69.2432C33.1345 69.9954 31.1362 70.192 29.2083 69.8086C28.4656 69.6609 27.7462 69.4291 27.0628 69.1211C23.4364 67.6392 20.8802 64.0786 20.8802 59.9189C20.8802 54.4297 25.3304 49.9795 30.8197 49.9795ZM44.2064 10.7656C44.5056 10.6277 44.8474 10.6135 45.1566 10.7275C50.1528 12.5884 54.4624 15.9304 57.5091 20.3057C60.5557 24.6808 62.1942 29.8815 62.2064 35.2129C62.2118 39.9958 60.901 44.6879 58.4173 48.7754C55.9336 52.8628 52.3729 56.1882 48.1253 58.3867L49.8324 58.9746C50.1433 59.0822 50.3983 59.3096 50.5423 59.6055C50.6864 59.9015 50.7072 60.2425 50.5999 60.5537C50.4927 60.8648 50.2668 61.1212 49.971 61.2656C49.6753 61.41 49.3341 61.431 49.0228 61.3242L44.3226 59.7051C44.1684 59.6521 44.0258 59.5699 43.9037 59.4619C43.7816 59.354 43.6822 59.2226 43.6107 59.0762C43.5392 58.9296 43.4966 58.7702 43.4867 58.6074C43.4768 58.4446 43.4998 58.2811 43.5531 58.127L45.1703 53.4297C45.2233 53.2756 45.3064 53.1329 45.4144 53.0107C45.5224 52.8886 45.6536 52.7883 45.8001 52.7168C45.9467 52.6453 46.1061 52.6038 46.2689 52.5938C46.4317 52.5837 46.5951 52.6061 46.7494 52.6592C46.9032 52.7122 47.0453 52.7946 47.1673 52.9023C47.2894 53.0103 47.3897 53.1416 47.4613 53.2881C47.5328 53.4346 47.5743 53.5941 47.5843 53.7568C47.5943 53.9196 47.5729 54.0831 47.5199 54.2373L46.8246 56.2559C50.9151 54.1721 54.3097 50.9415 56.5931 46.959C58.8765 42.9765 59.9501 38.4148 59.682 33.832C59.4138 29.2492 57.8156 24.8433 55.0833 21.1543C52.3509 17.4652 48.602 14.652 44.2962 13.0596C43.9871 12.9455 43.736 12.7133 43.598 12.4141C43.46 12.1148 43.4468 11.7731 43.5609 11.4639C43.675 11.1547 43.9071 10.9036 44.2064 10.7656ZM12.7035 9.125C12.8663 9.11507 13.0297 9.13729 13.1839 9.19043L17.8841 10.8096C18.0383 10.8626 18.181 10.9457 18.3031 11.0537C18.425 11.1617 18.5246 11.2931 18.596 11.4395C18.6673 11.5858 18.7091 11.7447 18.7191 11.9072C18.729 12.07 18.7068 12.2335 18.6537 12.3877L17.0355 17.0869C16.9824 17.241 16.9003 17.3838 16.7923 17.5059C16.6844 17.6279 16.553 17.7273 16.4066 17.7988C16.2601 17.8703 16.1006 17.9118 15.9378 17.9219C15.775 17.9319 15.6116 17.9105 15.4574 17.8574C15.3031 17.8044 15.1606 17.7213 15.0384 17.6133C14.9163 17.5053 14.817 17.374 14.7455 17.2275C14.6739 17.081 14.6314 16.9216 14.6214 16.7588C14.6114 16.596 14.6338 16.4325 14.6869 16.2783L15.3792 14.2666C11.2894 16.3503 7.8955 19.5813 5.61264 23.5635C3.32991 27.5455 2.25727 32.1064 2.52572 36.6885C2.79427 41.2707 4.39199 45.676 7.12436 49.3643C9.85674 53.0525 13.6052 55.8644 17.9105 57.4561C18.2197 57.5701 18.4707 57.8023 18.6087 58.1016C18.7467 58.4008 18.7608 58.7426 18.6468 59.0518C18.5328 59.361 18.3006 59.613 18.0013 59.751C17.702 59.889 17.3594 59.9022 17.0501 59.7881C12.3059 58.034 8.1736 54.939 5.15561 50.8799C2.13755 46.8206 0.36355 41.9714 0.0501377 36.9229C-0.263212 31.8744 0.897254 26.8436 3.38998 22.4424C5.88281 18.041 9.60112 14.4583 14.0921 12.1309L12.3744 11.54C12.2202 11.4869 12.0785 11.403 11.9564 11.2949C11.8342 11.1868 11.7339 11.0558 11.6624 10.9092C11.5911 10.7626 11.5493 10.6031 11.5394 10.4404C11.5295 10.2778 11.5518 10.115 11.6048 9.96094C11.658 9.80673 11.7409 9.66414 11.849 9.54199C11.957 9.41991 12.0882 9.3205 12.2347 9.24902C12.3813 9.17755 12.5407 9.13494 12.7035 9.125ZM30.8197 0C34.1581 0.000100619 37.1092 1.64815 38.9115 4.17285C40.3085 5.92372 41.0833 8.10363 41.0863 10.3652C41.0863 12.3308 40.5034 14.2523 39.4115 15.8867C38.3193 17.5212 36.7667 18.7956 34.9505 19.5479C33.1345 20.3001 31.1362 20.4967 29.2083 20.1133C27.2803 19.7298 25.5085 18.7836 24.1185 17.3936C23.7503 17.0254 23.4144 16.6294 23.1107 16.2119C21.7169 14.5011 20.8803 12.3182 20.8802 9.93945C20.8802 4.45021 25.3304 0 30.8197 0Z" fill="url(#paint0_linear_169_311)"/>
<defs>
<linearGradient id="paint0_linear_169_311" x1="31.1032" y1="0" x2="31.1032" y2="69.9995" gradientUnits="userSpaceOnUse">
<stop stop-color="#FCE172"/>
<stop offset="1" stop-color="#FF09F4"/>
</linearGradient>
</defs>
</svg>
