<svg width="64" height="64" viewBox="0 0 64 64" fill="none" xmlns="http://www.w3.org/2000/svg">
<circle cx="31.9444" cy="31.9444" r="31.9444" fill="white"/>
<path d="M40.4551 19.2668C37.0362 19.2668 34.2539 22.0491 34.2539 25.468C34.2539 28.8869 37.0362 31.6692 40.4551 31.6692C43.874 31.6692 46.6562 28.8869 46.6562 25.468C46.6562 22.0491 43.874 19.2668 40.4551 19.2668ZM41.1441 28.6044C41.1441 28.9848 40.8354 29.2934 40.4551 29.2934C40.0747 29.2934 39.7661 28.9848 39.7661 28.6044V28.2241C39.7661 27.8437 40.0747 27.5351 40.4551 27.5351C40.8354 27.5351 41.1441 27.8437 41.1441 28.2241V28.6044ZM41.1441 25.8484C41.1441 26.2287 40.8354 26.5374 40.4551 26.5374C40.0747 26.5374 39.7661 26.2287 39.7661 25.8484V22.7119C39.7661 22.3316 40.0747 22.0229 40.4551 22.0229C40.8354 22.0229 41.1441 22.3316 41.1441 22.7119V25.8484Z" fill="#0D0DF9"/>
<path d="M20.0745 27.5348H26.3886L26.0634 24.7787H20.3983L20.0745 27.5348Z" fill="#0D0DF9"/>
<path d="M19.9097 28.9132L17.8936 46.0574C17.8702 46.2558 17.9308 46.446 18.0631 46.5962C18.1954 46.745 18.3787 46.8277 18.5785 46.8277H27.8802C28.0801 46.8277 28.262 46.745 28.3956 46.5962C28.5279 46.4474 28.5885 46.2558 28.5651 46.0574L26.5477 28.9132H19.9097ZM45.967 35.8034H28.7443L29.9321 45.8961C29.9707 46.2145 29.9266 46.5314 29.8219 46.8277H45.967C46.3459 46.8277 46.656 46.5176 46.656 46.1387V36.4924C46.656 36.1135 46.3459 35.8034 45.967 35.8034ZM35.6317 40.6265C35.6317 41.0069 35.323 41.3155 34.9427 41.3155C34.5623 41.3155 34.2537 41.0069 34.2537 40.6265V37.8705C34.2537 37.4901 34.5623 37.1814 34.9427 37.1814C35.323 37.1814 35.6317 37.4901 35.6317 37.8705V40.6265ZM39.7658 40.6265C39.7658 41.0069 39.4571 41.3155 39.0768 41.3155C38.6964 41.3155 38.3878 41.0069 38.3878 40.6265V37.8705C38.3878 37.4901 38.6964 37.1814 39.0768 37.1814C39.4571 37.1814 39.7658 37.4901 39.7658 37.8705V40.6265ZM43.8999 40.6265C43.8999 41.0069 43.5912 41.3155 43.2109 41.3155C42.8306 41.3155 42.5219 41.0069 42.5219 40.6265V37.8705C42.5219 37.4901 42.8306 37.1814 43.2109 37.1814C43.5912 37.1814 43.8999 37.4901 43.8999 37.8705V40.6265ZM29.4305 22.023C30.5026 22.023 31.5114 21.6055 32.2707 20.8462L33.0782 20.0387C33.5757 19.5412 34.2371 19.267 34.9427 19.267C35.323 19.267 35.6317 18.9583 35.6317 18.5779C35.6317 18.1976 35.323 17.8889 34.9427 17.8889C33.8706 17.8889 32.8618 18.3065 32.1025 19.0658L31.295 19.8733C30.2987 20.8696 28.561 20.8696 27.5647 19.8733L26.7571 19.0658C26.0102 18.3189 24.9753 17.8889 23.9184 17.8889H23.0557C21.5358 17.8903 20.301 19.1264 20.301 20.645V21.334C20.301 21.7143 20.6097 22.023 20.9901 22.023C21.3704 22.023 21.6791 21.7143 21.6791 21.334V20.645C21.6791 19.8857 22.2978 19.2683 23.0571 19.267H23.9184C24.6129 19.267 25.2923 19.5481 25.7842 20.04L26.5918 20.8476C27.3497 21.6055 28.357 22.023 29.4305 22.023Z" fill="#0D0DF9"/>
</svg>
