<svg width="70" height="70" viewBox="0 0 70 70" fill="none" xmlns="http://www.w3.org/2000/svg">
<path fill-rule="evenodd" clip-rule="evenodd" d="M33.3743 0.279258C34.6429 -0.169519 35.9765 -0.059603 37.1058 0.481406C38.2222 1.01612 39.1364 1.96942 39.5901 3.21871C39.6031 3.24779 39.6127 3.27688 39.6224 3.30758C40.0517 4.56493 39.9386 5.88064 39.4056 6.99703C38.8709 8.11345 37.9176 9.02771 36.6683 9.48141C36.6393 9.49427 36.61 9.50396 36.5794 9.51363C36.2831 9.6148 35.9833 9.68402 35.6839 9.72652V18.2226C39.8029 18.387 43.5377 20.0366 46.3733 22.6504L52.3802 16.6435C51.7652 15.8262 51.3998 14.8104 51.3997 13.7089C51.3997 12.3593 51.9477 11.1376 52.8323 10.2529C53.717 9.36818 54.9386 8.82027 56.2884 8.82027C57.6365 8.82029 58.8597 9.3682 59.7444 10.2529C60.629 11.1376 61.1771 12.3593 61.1771 13.7089C61.177 15.0586 60.6291 16.2804 59.7444 17.165C58.8598 18.0496 57.638 18.5976 56.2884 18.5976C55.1862 18.5976 54.1695 18.2318 53.3519 17.6162L47.346 23.622C49.9586 26.4563 51.6077 30.1925 51.7737 34.3115H60.2649C60.3211 33.916 60.4247 33.5298 60.5735 33.1621C61.0353 32.0247 61.9251 31.0575 63.137 30.5244C63.1759 30.5033 63.2183 30.4852 63.262 30.4707C64.487 29.97 65.8013 30.004 66.9388 30.4658C68.0746 30.9292 69.0405 31.8192 69.5735 33.0312C69.5945 33.07 69.6117 33.1126 69.6263 33.1562C70.1252 34.3811 70.0929 35.6946 69.6312 36.832C69.1629 37.9889 68.2495 38.9694 67.0052 39.4961C65.7624 40.0226 64.4238 39.9955 63.2669 39.5273C62.1279 39.0655 61.1623 38.1757 60.6292 36.9638C60.626 36.9573 60.6227 36.9504 60.6194 36.9423C60.613 36.9294 60.6057 36.9162 60.6009 36.9033L60.6048 36.9023V36.9004C60.4361 36.5022 60.3246 36.0942 60.2659 35.6855H51.7737C51.6083 39.8056 49.9592 43.543 47.346 46.3779L53.3499 52.3818C54.1679 51.7653 55.1854 51.3994 56.2884 51.3994C57.6365 51.401 58.8597 51.9473 59.7444 52.832C60.6291 53.7167 61.1771 54.9383 61.1771 56.288C61.177 57.6378 60.6291 58.8594 59.7444 59.7441C58.8597 60.6288 57.6381 61.1767 56.2884 61.1767C54.9387 61.1767 53.717 60.6288 52.8323 59.7441C51.9476 58.8594 51.3997 57.6378 51.3997 56.288C51.3997 55.187 51.7637 54.1707 52.3782 53.3535L46.3733 47.3486C43.5388 49.9611 39.8031 51.6106 35.6839 51.7763V60.2724C35.8233 60.2925 35.9631 60.318 36.1028 60.3505C37.4169 60.6568 38.4837 61.467 39.1448 62.5283C39.8058 63.5896 40.0614 64.9041 39.7552 66.2197C39.4489 67.5336 38.6387 68.5997 37.5774 69.2607C36.5161 69.9217 35.2001 70.1773 33.886 69.8711C32.5722 69.5647 31.506 68.7545 30.845 67.6933C30.1841 66.6321 29.9285 65.3184 30.2347 64.0029C30.5409 62.6888 31.3495 61.622 32.4124 60.9609C32.9844 60.6047 33.6303 60.3668 34.3099 60.2705V51.7754C30.19 51.6095 26.4543 49.9611 23.6185 47.3476L17.6146 53.3525C18.2298 54.17 18.595 55.1863 18.595 56.288C18.595 57.6378 18.0471 58.8594 17.1624 59.7441C16.2777 60.6288 15.0561 61.1767 13.7064 61.1767C12.3566 61.1767 11.135 60.6288 10.2503 59.7441C9.3656 58.8594 8.8177 57.6378 8.81768 56.288C8.81768 54.9383 9.36559 53.7167 10.2503 52.832C11.135 51.9473 12.3566 51.3994 13.7064 51.3994C14.8083 51.4007 15.8243 51.7657 16.6419 52.3808L22.6468 46.3759C20.0349 43.5417 18.3859 39.806 18.22 35.6875H9.72393C9.71946 35.7189 9.71633 35.7507 9.71123 35.7822C9.49573 37.1125 8.7578 38.2331 7.74346 38.9638C6.74216 39.6846 5.47012 40.0296 4.15948 39.832C4.14176 39.8304 4.12251 39.8284 4.10479 39.8252V39.8242C2.77448 39.6087 1.6549 38.8707 0.924125 37.8564C0.203097 36.855 -0.142695 35.5833 0.0549842 34.2724C0.0565936 34.2547 0.0586214 34.2355 0.0618201 34.2177H0.0637732C0.280898 32.8858 1.01625 31.7675 2.03057 31.0351C3.04491 30.3043 4.33829 29.9596 5.67022 30.1767C7.00195 30.3923 8.12018 31.1293 8.85088 32.1435C9.30754 32.7775 9.61318 33.5204 9.72588 34.3134H18.22C18.3857 30.1936 20.0345 26.457 22.6478 23.6211L16.6419 17.6152C15.8243 18.2308 14.8084 18.5976 13.7064 18.5976C12.3567 18.5976 11.135 18.0496 10.2503 17.165C9.36566 16.2804 8.81777 15.0586 8.81768 13.7089C8.81768 12.3593 9.36566 11.1376 10.2503 10.2529C11.135 9.36818 12.3566 8.82027 13.7064 8.82027C15.0561 8.8203 16.2777 9.3682 17.1624 10.2529C18.047 11.1376 18.595 12.3593 18.595 13.7089C18.595 14.8104 18.2295 15.8262 17.6146 16.6435L23.6194 22.6494C26.4539 20.037 30.1909 18.3894 34.3099 18.2236V9.72555C33.8158 9.65453 33.3367 9.51016 32.8899 9.29684C31.7607 8.75569 30.8388 7.78641 30.3899 6.51461C29.9411 5.24265 30.0509 3.90863 30.5921 2.77926C31.1333 1.64994 32.1025 0.728122 33.3743 0.279258Z" fill="url(#paint0_linear_169_289)"/>
<path d="M26.6668 40.3262C26.5161 40.6729 26.6749 41.0764 27.0216 41.2287C27.3684 41.3794 27.7719 41.2206 27.9242 40.8738L32.197 31.1064L36.4699 40.8738C36.6206 41.2206 37.0257 41.3794 37.3724 41.2287C37.7192 41.078 37.878 40.6729 37.7273 40.3262L32.8468 29.1684C32.7852 28.9951 32.6556 28.846 32.4741 28.7666C32.1257 28.6143 31.7207 28.7731 31.5683 29.1214L31.57 29.1231L26.6668 40.3262Z" fill="white"/>
<path d="M42.6997 34.3115C43.0786 34.3117 43.386 34.6192 43.3862 34.998V40.5996C43.3862 40.9787 43.0787 41.2869 42.6997 41.2871C42.3205 41.2871 42.0122 40.9788 42.0122 40.5996V34.998C42.0124 34.6191 42.3207 34.3115 42.6997 34.3115ZM35.2603 35.7129C35.6394 35.7129 35.9478 36.0212 35.9478 36.4004C35.9476 36.7794 35.6393 37.0869 35.2603 37.0869H29.1343C28.7552 37.0869 28.447 36.7794 28.4468 36.4004C28.4468 36.0212 28.7551 35.7129 29.1343 35.7129H35.2603ZM42.6997 29.5781C43.0787 29.5783 43.3862 29.8866 43.3862 30.2656V31.6719C43.3862 32.0509 43.0787 32.3592 42.6997 32.3594C42.3206 32.3594 42.0122 32.051 42.0122 31.6719V30.2656C42.0122 29.8865 42.3205 29.5781 42.6997 29.5781Z" fill="white"/>
<defs>
<linearGradient id="paint0_linear_169_289" x1="34.9945" y1="0" x2="34.9945" y2="69.9996" gradientUnits="userSpaceOnUse">
<stop stop-color="#FCE172"/>
<stop offset="1" stop-color="#FF09F4"/>
</linearGradient>
</defs>
</svg>
