<svg width="80" height="70" viewBox="0 0 80 70" fill="none" xmlns="http://www.w3.org/2000/svg">
<path d="M56.9429 22.3889L40.4611 12.8843C40.2626 12.7697 40.0376 12.7094 39.8084 12.7094C39.5793 12.7094 39.3543 12.7697 39.1558 12.8843L22.6739 22.3889C22.4755 22.5036 22.3107 22.6685 22.1961 22.867C22.0816 23.0653 22.0213 23.2905 22.0213 23.5197L22.0187 44.3964C22.0187 44.6255 22.0789 44.8508 22.1935 45.049C22.308 45.2476 22.4729 45.4124 22.6713 45.5268L39.1558 55.0417C39.3543 55.1562 39.5793 55.2166 39.8084 55.2166C40.0376 55.2166 40.2626 55.1562 40.4611 55.0417L56.9454 45.5271C57.1439 45.4124 57.3087 45.2476 57.4232 45.049C57.5379 44.8508 57.598 44.6255 57.598 44.3964L57.5955 23.5197C57.5955 23.2905 57.5354 23.0653 57.4207 22.867C57.3062 22.6685 57.1414 22.5036 56.9429 22.3889ZM39.8084 15.5215L53.6776 23.5194L39.8084 31.5176L25.9393 23.5194L39.8084 15.5215ZM24.6316 25.7792L38.5034 33.7786V51.6509L24.6292 43.6432L24.6316 25.7792ZM41.1138 51.6509V33.7786L54.9852 25.7792L54.9877 43.6432L41.1138 51.6509ZM26.2428 3.91558C26.2428 3.78577 26.2945 3.66131 26.3862 3.56954C26.478 3.47773 26.6025 3.42617 26.7323 3.42614H29.1107C29.2405 3.42614 29.3649 3.47771 29.4568 3.56948C29.5487 3.66128 29.6002 3.78577 29.6002 3.91558C29.6002 4.04539 29.5487 4.16988 29.4568 4.26169C29.3649 4.35346 29.2405 4.40503 29.1107 4.40503H26.7323C26.6025 4.405 26.478 4.35343 26.3862 4.26163C26.2945 4.16986 26.2428 4.04539 26.2428 3.91558ZM44.0733 3.91558C44.0733 3.78577 44.1248 3.66131 44.2167 3.56954C44.3083 3.47776 44.4328 3.42617 44.5628 3.42614H46.9399C47.0696 3.42614 47.1941 3.47771 47.286 3.56948C47.3779 3.66128 47.4294 3.78577 47.4294 3.91558C47.4294 4.04539 47.3779 4.16988 47.286 4.26169C47.1941 4.35346 47.0696 4.40503 46.9399 4.40503H44.5628C44.4328 4.405 44.3083 4.35343 44.2167 4.26163C44.1248 4.16986 44.0733 4.04539 44.0733 3.91558ZM38.1297 3.91558C38.1297 3.78577 38.1815 3.66131 38.2731 3.56954C38.365 3.47776 38.4894 3.42617 38.6192 3.42614H40.9963C41.1263 3.42614 41.2507 3.47771 41.3424 3.56948C41.4342 3.66128 41.4858 3.78577 41.4858 3.91558C41.4858 4.04539 41.4342 4.16988 41.3424 4.26169C41.2507 4.35346 41.1263 4.40503 40.9963 4.40503H38.6192C38.4894 4.405 38.365 4.35343 38.2731 4.26163C38.1815 4.16986 38.1297 4.04539 38.1297 3.91558ZM32.1864 3.91558C32.1864 3.78577 32.2379 3.66131 32.3298 3.56954C32.4214 3.47776 32.5458 3.42617 32.6759 3.42614H35.0529C35.1827 3.42614 35.3071 3.47771 35.399 3.56948C35.4906 3.66128 35.5424 3.78577 35.5424 3.91558C35.5424 4.04539 35.4906 4.16988 35.399 4.26169C35.3071 4.35346 35.1827 4.40503 35.0529 4.40503H32.6759C32.5458 4.405 32.4214 4.35343 32.3298 4.26163C32.2379 4.16986 32.1864 4.04539 32.1864 3.91558ZM50.0166 3.91558C50.0166 3.78577 50.0684 3.66131 50.16 3.56954C50.2519 3.47776 50.3764 3.42617 50.5061 3.42614H52.8832C53.0132 3.42614 53.1377 3.47771 53.2293 3.56948C53.3212 3.66128 53.3727 3.78577 53.3727 3.91558C53.3727 4.04539 53.3212 4.16988 53.2293 4.26169C53.1377 4.35346 53.0132 4.40503 52.8832 4.40503H50.5061C50.3764 4.405 50.2519 4.35343 50.16 4.26163C50.0684 4.16986 50.0166 4.04539 50.0166 3.91558ZM10.9361 23.8204L9.74688 25.8789C9.70367 25.9532 9.64174 26.0148 9.56729 26.0579C9.49281 26.1008 9.40841 26.1234 9.32246 26.1237C9.2365 26.1239 9.15202 26.1014 9.07773 26.0579C9.02202 26.0259 8.97315 25.9833 8.93397 25.9324C8.89477 25.8811 8.86601 25.8232 8.8493 25.7611C8.83262 25.699 8.82833 25.6342 8.83669 25.5704C8.84504 25.5066 8.86587 25.4451 8.898 25.3894L10.0872 23.3309C10.1524 23.219 10.2593 23.1374 10.3845 23.104C10.5098 23.0705 10.6432 23.0881 10.7555 23.153C10.8677 23.2176 10.9498 23.3242 10.9836 23.4492C11.0175 23.5745 11.0004 23.7079 10.9361 23.8204ZM17.8126 9.94894L19.0018 7.88981C19.067 7.77776 19.1739 7.69612 19.2991 7.66274C19.4244 7.62935 19.5577 7.64698 19.67 7.71172C19.7823 7.77645 19.8644 7.88307 19.8982 8.00817C19.9321 8.13328 19.915 8.2667 19.8507 8.37925L18.6615 10.4384C18.6182 10.5127 18.5563 10.5743 18.4819 10.6173C18.4074 10.6602 18.323 10.6829 18.237 10.6831C18.1511 10.6834 18.0666 10.6607 17.9923 10.6174C17.9366 10.5854 17.8877 10.5427 17.8486 10.4917C17.8093 10.4407 17.7806 10.3825 17.7639 10.3204C17.7472 10.2583 17.7429 10.1936 17.7513 10.1298C17.7596 10.0661 17.7804 10.0046 17.8126 9.94894ZM16.8796 13.5261L15.6904 15.5852C15.6471 15.6595 15.5852 15.7212 15.5108 15.7641C15.4363 15.8071 15.3519 15.8298 15.2659 15.83C15.18 15.8302 15.0955 15.8076 15.0212 15.7643C14.9655 15.7322 14.9166 15.6895 14.8774 15.6385C14.8382 15.5876 14.8095 15.5294 14.7928 15.4673C14.7761 15.4052 14.7718 15.3404 14.7802 15.2767C14.7885 15.2129 14.8094 15.1515 14.8415 15.0958L16.0307 13.0367C16.0959 12.9246 16.2028 12.843 16.328 12.8096C16.4533 12.7762 16.5866 12.7938 16.6989 12.8586C16.8112 12.9233 16.8933 13.0299 16.9271 13.155C16.961 13.2801 16.9439 13.4136 16.8796 13.5261ZM5.92689 30.5369L7.11481 28.4779C7.17999 28.3659 7.28691 28.2841 7.41215 28.2507C7.5374 28.2175 7.67074 28.2351 7.78304 28.2997C7.89533 28.3645 7.97739 28.4712 8.01125 28.5962C8.0451 28.7212 8.02801 28.8549 7.96369 28.9674L6.77577 31.0264C6.71059 31.1384 6.6037 31.22 6.47846 31.2534C6.35321 31.2868 6.21984 31.2692 6.10754 31.2044C5.99528 31.1398 5.91322 31.0331 5.87936 30.9081C5.84547 30.7828 5.86257 30.6494 5.92689 30.5369ZM13.9072 18.6736L12.7192 20.7321C12.6541 20.8441 12.5472 20.9258 12.4219 20.9591C12.2967 20.9925 12.1633 20.9749 12.051 20.9101C11.9387 20.8454 11.8567 20.7388 11.8228 20.6137C11.789 20.4886 11.8061 20.3552 11.8704 20.2426L13.0583 18.1841C13.1235 18.0721 13.2304 17.9905 13.3556 17.9571C13.4809 17.9237 13.6142 17.9413 13.7265 18.0061C13.8388 18.0708 13.9209 18.1774 13.9547 18.3025C13.9886 18.4276 13.9715 18.561 13.9072 18.6736ZM13.9072 51.3265C13.9715 51.439 13.9886 51.5724 13.9547 51.6974C13.9209 51.8227 13.8388 51.929 13.7265 51.9939C13.6142 52.0585 13.4809 52.0763 13.3556 52.0429C13.2304 52.0095 13.1235 51.9279 13.0583 51.8157L11.8704 49.7575C11.8061 49.6447 11.789 49.5113 11.8228 49.3863C11.8567 49.261 11.9387 49.1547 12.051 49.0898C12.1633 49.0252 12.2967 49.0074 12.4219 49.0408C12.5472 49.0742 12.6541 49.1558 12.7192 49.268L13.9072 51.3265ZM16.8796 56.4732C16.9117 56.5289 16.9325 56.5904 16.9409 56.6542C16.9492 56.718 16.9449 56.7826 16.9282 56.8447C16.9115 56.9067 16.8828 56.9649 16.8436 57.0159C16.8044 57.0668 16.7556 57.1097 16.6998 57.1417C16.6256 57.1849 16.5411 57.2077 16.4551 57.2075C16.3691 57.2072 16.2847 57.1846 16.2103 57.1415C16.1358 57.0986 16.0739 57.0371 16.0307 56.9627L14.8415 54.9042C14.7772 54.7917 14.7601 54.6583 14.7939 54.533C14.8278 54.408 14.9099 54.3014 15.0222 54.2368C15.1344 54.1719 15.2678 54.1544 15.393 54.1878C15.5183 54.2212 15.6252 54.3028 15.6904 54.4147L16.8796 56.4732ZM7.965 41.0328C7.99713 41.0885 8.01796 41.1497 8.02631 41.2135C8.03466 41.2773 8.03038 41.3421 8.0137 41.4042C7.99699 41.4663 7.96823 41.5245 7.92905 41.5755C7.88985 41.6264 7.84101 41.669 7.78526 41.7013C7.711 41.7445 7.62652 41.767 7.54054 41.7668C7.45459 41.7668 7.37019 41.7439 7.29574 41.7011C7.22125 41.6582 7.15933 41.5964 7.11611 41.522L5.92689 39.4629C5.86257 39.3505 5.84547 39.2171 5.87936 39.0921C5.91322 38.9668 5.99528 38.8601 6.10754 38.7955C6.21984 38.7306 6.35321 38.7131 6.47846 38.7465C6.6037 38.7799 6.71059 38.8615 6.77577 38.9734L7.965 41.0328ZM10.9361 46.1795C10.9682 46.2352 10.9891 46.2967 10.9974 46.3605C11.0058 46.4243 11.0015 46.4889 10.9848 46.5509C10.9681 46.613 10.9393 46.6712 10.9002 46.7222C10.861 46.7731 10.8121 46.816 10.7564 46.848C10.6821 46.8912 10.5976 46.914 10.5117 46.9138C10.4257 46.9135 10.3413 46.8909 10.2668 46.8478C10.1924 46.8049 10.1304 46.7434 10.0872 46.669L8.898 44.6099C8.83371 44.4974 8.81661 44.3638 8.85047 44.2388C8.88433 44.1138 8.96638 44.0071 9.07868 43.9422C9.19095 43.8776 9.32432 43.8601 9.44956 43.8932C9.57481 43.9266 9.68173 44.0085 9.74688 44.1204L10.9361 46.1795ZM19.0018 62.1102L17.8139 60.0512C17.7496 59.9384 17.7325 59.805 17.7663 59.68C17.8002 59.5547 17.8822 59.4484 17.9945 59.3835C18.1068 59.3189 18.2402 59.3011 18.3654 59.3345C18.4907 59.3679 18.5976 59.4495 18.6627 59.5617L19.8507 61.6208C19.915 61.7332 19.9321 61.8666 19.8982 61.9919C19.8644 62.1169 19.7823 62.2236 19.67 62.2882C19.5577 62.3531 19.4244 62.3706 19.2992 62.3372C19.1739 62.3038 19.067 62.2222 19.0018 62.1102ZM41.4871 66.0844C41.4871 66.2142 41.4354 66.3387 41.3438 66.4305C41.2519 66.5222 41.1274 66.5737 40.9976 66.5739H38.6206C38.4906 66.5739 38.3661 66.5222 38.2745 66.4305C38.1826 66.3387 38.1311 66.2142 38.1311 66.0844C38.1311 65.9547 38.1826 65.8299 38.2745 65.7383C38.3661 65.6465 38.4906 65.5949 38.6206 65.5949H40.9976C41.1274 65.5949 41.2519 65.6465 41.3438 65.7383C41.4354 65.8302 41.4871 65.9547 41.4871 66.0844ZM47.4305 66.0844C47.4305 66.2142 47.379 66.3387 47.2871 66.4305C47.1955 66.5222 47.071 66.5737 46.941 66.5739H44.5639C44.4342 66.5739 44.3097 66.5222 44.2178 66.4305C44.1262 66.3387 44.0744 66.2142 44.0744 66.0844C44.0744 65.9547 44.1262 65.8299 44.2178 65.7383C44.3097 65.6465 44.4342 65.5949 44.5639 65.5949H46.941C47.071 65.5949 47.1955 65.6465 47.2871 65.7383C47.379 65.8302 47.4305 65.9547 47.4305 66.0844ZM53.3741 66.0844C53.3741 66.2142 53.3223 66.3387 53.2307 66.4305C53.1388 66.5222 53.0143 66.5737 52.8846 66.5739H50.5061C50.3764 66.5739 50.2519 66.5222 50.16 66.4305C50.0682 66.3387 50.0166 66.2142 50.0166 66.0844C50.0166 65.9547 50.0682 65.8299 50.16 65.7383C50.2519 65.6465 50.3764 65.5949 50.5061 65.5949H52.8846C53.0143 65.5949 53.1388 65.6465 53.2307 65.7383C53.3223 65.8302 53.3741 65.9547 53.3741 66.0844ZM29.6002 66.0844C29.6002 66.2142 29.5484 66.3387 29.4568 66.4305C29.3649 66.5222 29.2405 66.5737 29.1107 66.5739H26.7337C26.6036 66.5739 26.4792 66.5222 26.3875 66.4305C26.2957 66.3387 26.2441 66.2142 26.2441 66.0844C26.2441 65.9547 26.2957 65.8299 26.3875 65.7383C26.4792 65.6465 26.6036 65.5949 26.7337 65.5949H29.1107C29.2405 65.5949 29.3649 65.6465 29.4568 65.7383C29.5484 65.8302 29.6002 65.9547 29.6002 66.0844ZM35.5435 66.0844C35.5435 66.2142 35.492 66.3387 35.4001 66.4305C35.3085 66.5222 35.1841 66.5737 35.054 66.5739H32.677C32.5472 66.5739 32.4228 66.5222 32.3309 66.4305C32.2393 66.3387 32.1875 66.2142 32.1875 66.0844C32.1875 65.9547 32.2393 65.8299 32.3309 65.7383C32.4228 65.6465 32.5472 65.5949 32.677 65.5949H35.054C35.1841 65.5949 35.3085 65.6465 35.4001 65.7383C35.492 65.8302 35.5435 65.9547 35.5435 66.0844ZM61.8042 60.0512L60.615 62.1102C60.5718 62.1846 60.51 62.2461 60.4354 62.289C60.361 62.3319 60.2766 62.3547 60.1906 62.355C60.1046 62.3553 60.0202 62.3325 59.9459 62.2893C59.8902 62.2573 59.8414 62.2144 59.8022 62.1634C59.7629 62.1125 59.7342 62.0543 59.7175 61.9922C59.7008 61.9301 59.6964 61.8655 59.7047 61.8017C59.7131 61.738 59.734 61.6764 59.7663 61.6208L60.9555 59.5617C61.0206 59.4495 61.1276 59.3679 61.2526 59.3345C61.3779 59.3011 61.5113 59.3189 61.6235 59.3835C61.736 59.4484 61.8178 59.5547 61.8518 59.68C61.8858 59.805 61.8685 59.9384 61.8042 60.0512ZM64.7754 54.9042L63.5862 56.9633C63.543 57.0376 63.481 57.0994 63.4066 57.1423C63.332 57.1852 63.2476 57.2077 63.1616 57.208C63.0758 57.2083 62.9912 57.1857 62.9171 57.1423C62.8611 57.1103 62.8124 57.0677 62.7732 57.0167C62.7339 56.9658 62.7052 56.9076 62.6885 56.8455C62.6718 56.7834 62.6676 56.7185 62.676 56.6548C62.6843 56.591 62.7052 56.5294 62.7372 56.4738L63.9265 54.4147C63.9916 54.3028 64.0985 54.2212 64.2238 54.1878C64.3491 54.1544 64.4825 54.1719 64.5947 54.2368C64.7069 54.3014 64.7891 54.408 64.8228 54.533C64.8567 54.6583 64.8397 54.7917 64.7754 54.9042ZM67.7464 49.7575L66.5586 51.8157C66.4934 51.9279 66.3865 52.0095 66.2612 52.0429C66.1359 52.0763 66.0025 52.0585 65.8903 51.9939C65.7781 51.929 65.696 51.8227 65.662 51.6974C65.6283 51.5724 65.6453 51.439 65.7096 51.3265L66.8974 49.268C66.9629 49.1558 67.0698 49.0742 67.1948 49.0408C67.3201 49.0074 67.4535 49.0252 67.5657 49.0898C67.6782 49.1547 67.76 49.261 67.794 49.3863C67.828 49.5113 67.8107 49.6447 67.7464 49.7575ZM70.7188 44.6105L69.5295 46.669C69.4864 46.7434 69.4246 46.8049 69.3499 46.8478C69.2756 46.8909 69.1912 46.9135 69.1052 46.9138C69.0191 46.914 68.9348 46.8912 68.8604 46.848C68.8047 46.816 68.756 46.7731 68.7168 46.7222C68.6775 46.6712 68.6488 46.613 68.6321 46.5509C68.6154 46.4889 68.611 46.4243 68.6193 46.3605C68.6277 46.2967 68.6485 46.2352 68.6808 46.1795L69.8701 44.121C69.9352 44.0091 70.0422 43.9275 70.1672 43.8941C70.2925 43.8606 70.4258 43.8782 70.538 43.9431C70.6505 44.0077 70.7324 44.1143 70.7664 44.2393C70.8003 44.3646 70.7831 44.498 70.7188 44.6105ZM73.69 39.4629L72.5019 41.522C72.4367 41.6342 72.3298 41.7158 72.2048 41.7492C72.0795 41.7826 71.9461 41.7648 71.8339 41.7002C71.7214 41.6353 71.6396 41.529 71.6056 41.4037C71.5716 41.2787 71.5889 41.1453 71.6532 41.0328L72.841 38.9734C72.9062 38.8615 73.0131 38.7799 73.1384 38.7465C73.2637 38.7131 73.3971 38.7306 73.5093 38.7955C73.6215 38.8601 73.7037 38.9668 73.7376 39.0921C73.7713 39.2171 73.7543 39.3505 73.69 39.4629ZM70.7188 25.3902C70.7511 25.4459 70.7719 25.5072 70.7803 25.5709C70.7887 25.6347 70.7842 25.6996 70.7675 25.7617C70.7508 25.8238 70.7221 25.882 70.6828 25.9329C70.6436 25.9839 70.5949 26.0265 70.5392 26.0585C70.4648 26.1019 70.3805 26.1245 70.2944 26.1242C70.2084 26.1242 70.124 26.1014 70.0497 26.0585C69.975 26.0156 69.9132 25.9538 69.8701 25.8795L68.6808 23.8204C68.6165 23.7079 68.5993 23.5745 68.6332 23.4492C68.6669 23.3242 68.7491 23.2176 68.8613 23.153C68.9738 23.0881 69.1071 23.0705 69.2322 23.104C69.3575 23.1374 69.4644 23.219 69.5295 23.3309L70.7188 25.3902ZM67.7464 20.2426C67.8107 20.3552 67.828 20.4886 67.794 20.6137C67.76 20.7388 67.6782 20.8454 67.5657 20.9101C67.4535 20.9749 67.3201 20.9925 67.1948 20.9591C67.0698 20.9258 66.9629 20.8441 66.8974 20.7321L65.7096 18.6736C65.6453 18.561 65.6283 18.4276 65.662 18.3025C65.696 18.1774 65.7781 18.0708 65.8903 18.0061C66.0025 17.9413 66.1359 17.9237 66.2612 17.9571C66.3865 17.9905 66.4934 18.0721 66.5586 18.1841L67.7464 20.2426ZM71.6518 28.9674C71.5875 28.8549 71.5705 28.7212 71.6042 28.5962C71.6382 28.4712 71.7203 28.3645 71.8325 28.2997C71.9447 28.2351 72.0781 28.2175 72.2034 28.2507C72.3287 28.2841 72.4356 28.3659 72.5008 28.4779L73.69 30.5369C73.722 30.5926 73.7429 30.6542 73.7513 30.7179C73.7596 30.7817 73.7554 30.8463 73.7387 30.9084C73.722 30.9705 73.6931 31.0287 73.6541 31.0796C73.6148 31.1306 73.5658 31.1735 73.5101 31.2055C73.4361 31.2486 73.3514 31.2715 73.2654 31.2712C73.1796 31.2709 73.0953 31.2484 73.0206 31.2052C72.9463 31.1623 72.8842 31.1008 72.841 31.0264L71.6518 28.9674ZM64.7754 15.0958C64.8074 15.1515 64.8283 15.2129 64.8367 15.2767C64.845 15.3404 64.8409 15.4052 64.8242 15.4673C64.8074 15.5294 64.7785 15.5876 64.7395 15.6385C64.7002 15.6895 64.6512 15.7322 64.5956 15.7643C64.5215 15.8076 64.4368 15.8302 64.3508 15.83C64.265 15.8298 64.1807 15.8071 64.1061 15.7641C64.0317 15.7212 63.9696 15.6595 63.9265 15.5852L62.7372 13.5267C62.6729 13.4142 62.6559 13.2808 62.6896 13.1557C62.7236 13.0306 62.8057 12.9239 62.9179 12.8592C63.0302 12.7945 63.1635 12.7768 63.2888 12.8102C63.4141 12.8436 63.521 12.9253 63.5862 13.0373L64.7754 15.0958ZM60.615 7.88981L61.8031 9.94894C61.8674 10.0615 61.8844 10.1949 61.8504 10.32C61.8167 10.4451 61.7346 10.5517 61.6224 10.6164C61.5101 10.6812 61.3768 10.6988 61.2515 10.6654C61.1262 10.6321 61.0193 10.5504 60.9541 10.4384L59.7663 8.37925C59.702 8.2667 59.6847 8.13328 59.7187 8.00817C59.7523 7.88307 59.8345 7.77645 59.9467 7.71172C60.0592 7.64698 60.1926 7.62935 60.3176 7.66274C60.4429 7.69612 60.5498 7.77776 60.615 7.88981ZM7.83118 35.0001C7.83118 34.2255 7.60152 33.4684 7.17127 32.8246C6.74103 32.1806 6.12949 31.6788 5.414 31.3826C4.69855 31.086 3.91125 31.0086 3.15169 31.1595C2.39213 31.3107 1.69444 31.6836 1.14686 32.2313C0.599245 32.779 0.226323 33.4765 0.075238 34.236C-0.0758443 34.9956 0.00169591 35.7831 0.298058 36.4984C0.59442 37.214 1.09629 37.8254 1.74022 38.2556C2.38411 38.6858 3.14117 38.9155 3.9156 38.9155C4.95371 38.9144 5.949 38.5015 6.68308 37.7675C7.41714 37.0333 7.83004 36.0381 7.83118 35.0001ZM3.9156 36.3051C3.65745 36.3051 3.4051 36.2286 3.19045 36.0852C2.97583 35.9418 2.80854 35.738 2.70975 35.4993C2.61096 35.261 2.58512 34.9984 2.63546 34.7453C2.68583 34.4922 2.81013 34.2597 2.99267 34.077C3.17522 33.8947 3.40778 33.7702 3.66096 33.7198C3.91415 33.6694 4.17658 33.6953 4.41507 33.7942C4.65355 33.893 4.8574 34.0603 5.00082 34.2747C5.14422 34.4894 5.22079 34.742 5.22079 35.0001C5.22043 35.3459 5.08282 35.6778 4.8381 35.9226C4.59341 36.1673 4.26164 36.3049 3.9156 36.3051ZM21.8799 62.1687C21.1054 62.1687 20.3484 62.3984 19.7045 62.8286C19.0606 63.2588 18.5587 63.8706 18.2623 64.5859C17.9659 65.3015 17.8884 66.0886 18.0395 66.8482C18.1906 67.6078 18.5635 68.3056 19.1111 68.853C19.6587 69.4007 20.3564 69.7735 21.116 69.9247C21.8755 70.0759 22.6628 69.9982 23.3783 69.702C24.0937 69.4054 24.7053 68.9037 25.1355 68.2596C25.5658 67.6159 25.7954 66.8588 25.7954 66.0844C25.7943 65.0461 25.3814 64.051 24.6473 63.317C23.9133 62.5828 22.918 62.1698 21.8799 62.1687ZM21.8799 67.3895C21.6217 67.3895 21.3694 67.3129 21.1547 67.1695C20.9401 67.0261 20.7728 66.8223 20.674 66.584C20.5752 66.3454 20.5494 66.0831 20.5997 65.8297C20.6501 65.5766 20.7744 65.3441 20.9569 65.1614C21.1395 64.979 21.372 64.8546 21.6252 64.8042C21.8784 64.7538 22.1408 64.7797 22.3793 64.8785C22.6178 64.9774 22.8217 65.1447 22.9651 65.3594C23.1085 65.5738 23.1851 65.8263 23.1851 66.0844C23.1847 66.4305 23.0471 66.7622 22.8024 67.0069C22.5577 67.2517 22.2259 67.3892 21.8799 67.3895ZM21.8582 7.83117C22.6326 7.83117 23.3897 7.60154 24.0336 7.17126C24.6775 6.74101 25.1794 6.1295 25.4757 5.41402C25.7721 4.69853 25.8496 3.91124 25.6985 3.15171C25.5474 2.39215 25.1745 1.69446 24.6269 1.14685C24.0793 0.599235 23.3816 0.226318 22.6221 0.0752361C21.8625 -0.0758462 21.0752 0.00169984 20.3598 0.298073C19.6443 0.594418 19.0327 1.09628 18.6025 1.7402C18.1722 2.38413 17.9426 3.14115 17.9426 3.91558C17.9437 4.95372 18.3566 5.94901 19.0907 6.68307C19.8248 7.41712 20.8201 7.83002 21.8582 7.83117ZM21.8582 2.61039C22.1163 2.61039 22.3687 2.68693 22.5833 2.83036C22.7979 2.97378 22.9653 3.1776 23.064 3.41612C23.1628 3.6546 23.1887 3.91703 23.1383 4.17022C23.0879 4.4234 22.9636 4.65596 22.7811 4.83851C22.5986 5.02102 22.366 5.14535 22.1128 5.19569C21.8596 5.24606 21.5972 5.22022 21.3587 5.12143C21.1202 5.02264 20.9164 4.85535 20.7729 4.6407C20.6295 4.42608 20.553 4.17373 20.553 3.91558C20.5533 3.56954 20.691 3.23775 20.9357 2.99305C21.1804 2.74836 21.5121 2.61072 21.8582 2.61039ZM57.7815 62.1687C57.0072 62.1687 56.2501 62.3984 55.6064 62.8286C54.9623 63.2588 54.4606 63.8706 54.164 64.5859C53.8678 65.3015 53.7901 66.0886 53.9413 66.8482C54.0925 67.6078 54.4653 68.3056 55.013 68.853C55.5604 69.4007 56.2582 69.7735 57.0178 69.9247C57.7774 70.0759 58.5645 69.9982 59.2801 69.702C59.9954 69.4054 60.6072 68.9037 61.0373 68.2596C61.4675 67.6159 61.6973 66.8588 61.6973 66.0844C61.6961 65.0461 61.2832 64.051 60.549 63.317C59.815 62.5828 58.8198 62.1698 57.7815 62.1687ZM57.7815 67.3895C57.5234 67.3895 57.2712 67.3129 57.0565 67.1695C56.8418 67.0261 56.6745 66.8223 56.5759 66.584C56.477 66.3454 56.4511 66.0831 56.5015 65.8297C56.5519 65.5766 56.6761 65.3441 56.8588 65.1614C57.0412 64.979 57.2737 64.8546 57.527 64.8042C57.7801 64.7538 58.0427 64.7797 58.2811 64.8785C58.5197 64.9774 58.7235 65.1447 58.8669 65.3594C59.0103 65.5738 59.0869 65.8263 59.0869 66.0844C59.0866 66.4305 58.9488 66.7622 58.704 67.0069C58.4595 67.2517 58.1276 67.3892 57.7815 67.3895ZM57.7598 7.83117C58.5344 7.83117 59.2915 7.60154 59.9353 7.17126C60.5793 6.74101 61.0811 6.1295 61.3776 5.41402C61.6739 4.69853 61.7513 3.91124 61.6004 3.15171C61.4492 2.39215 61.0763 1.69446 60.5286 1.14685C59.9809 0.599235 59.2834 0.226318 58.5239 0.0752361C57.7643 -0.0758462 56.9771 0.00169984 56.2615 0.298073C55.5459 0.594418 54.9345 1.09628 54.5043 1.7402C54.0741 2.38413 53.8444 3.14115 53.8444 3.91558C53.8455 4.95372 54.2584 5.94901 54.9924 6.68307C55.7266 7.41712 56.7218 7.83002 57.7598 7.83117ZM57.7598 2.61039C58.0182 2.61039 58.2705 2.68693 58.4852 2.83036C58.6998 2.97378 58.8669 3.1776 58.9657 3.41612C59.0646 3.6546 59.0905 3.91703 59.0401 4.17022C58.9897 4.4234 58.8655 4.65596 58.6829 4.83851C58.5002 5.02102 58.2677 5.14535 58.0146 5.19569C57.7615 5.24606 57.4989 5.22022 57.2606 5.12143C57.0219 5.02264 56.8181 4.85535 56.6747 4.6407C56.5313 4.42608 56.4548 4.17373 56.4548 3.91558C56.455 3.56954 56.5926 3.23775 56.8373 2.99305C57.0821 2.74836 57.414 2.61072 57.7598 2.61039ZM75.7012 31.0844C74.9268 31.0844 74.1698 31.3141 73.526 31.7443C72.882 32.1745 72.3802 32.7862 72.0837 33.5015C71.7874 34.2171 71.7097 35.0043 71.8609 35.7639C72.0121 36.5234 72.3849 37.2212 72.9326 37.7686C73.4801 38.3163 74.1778 38.6892 74.9374 38.8404C75.697 38.9915 76.4842 38.9139 77.1998 38.6176C77.9151 38.3211 78.5268 37.8193 78.957 37.1753C79.3872 36.5315 79.6169 35.7744 79.6169 35.0001C79.6158 33.9618 79.2029 32.9666 78.4686 32.2324C77.7346 31.4984 76.7395 31.0855 75.7012 31.0844ZM75.7012 36.3051C75.4431 36.3051 75.1908 36.2286 74.9761 36.0852C74.7615 35.9418 74.5941 35.738 74.4955 35.4993C74.3967 35.261 74.3708 34.9984 74.4212 34.7453C74.4716 34.4922 74.5958 34.2597 74.7784 34.077C74.9608 33.8947 75.1933 33.7702 75.4467 33.7198C75.6998 33.6694 75.9624 33.6953 76.2007 33.7942C76.4393 33.893 76.6432 34.0603 76.7866 34.2747C76.93 34.4894 77.0065 34.742 77.0065 35.0001C77.0062 35.3459 76.8684 35.6778 76.6237 35.9226C76.3792 36.1673 76.0473 36.3049 75.7012 36.3051Z" fill="url(#paint0_linear_683_1436)"/>
<defs>
<linearGradient id="paint0_linear_683_1436" x1="39.8085" y1="1.20658e-06" x2="111" y2="144" gradientUnits="userSpaceOnUse">
<stop stop-color="#FCBC72"/>
<stop offset="1" stop-color="#FF09F4"/>
</linearGradient>
</defs>
</svg>
