<svg width="50" height="50" viewBox="0 0 50 50" fill="none" xmlns="http://www.w3.org/2000/svg">
<circle cx="25" cy="25" r="24.5" stroke="#9747FF"/>
<g clip-path="url(#clip0_683_1523)">
<path d="M22.2697 36.016L24.2001 27H18.6169C18.466 27 18.3181 26.9582 18.1896 26.8792C18.0611 26.8001 17.9571 26.687 17.889 26.5524C17.8209 26.4177 17.7915 26.2669 17.8041 26.1165C17.8167 25.9662 17.8707 25.8223 17.9601 25.7008L26.8733 13.6C26.9381 13.5106 27.0317 13.4462 27.1384 13.4178C27.2451 13.3894 27.3584 13.3986 27.4591 13.444C27.5598 13.4893 27.6417 13.568 27.6912 13.6667C27.7406 13.7655 27.7545 13.8782 27.7305 13.986L25.8001 23H31.3833C31.5342 23 31.6821 23.0418 31.8106 23.1209C31.9391 23.1999 32.0432 23.313 32.1112 23.4476C32.1793 23.5823 32.2087 23.7331 32.1961 23.8835C32.1836 24.0338 32.1296 24.1777 32.0401 24.2992L23.1269 36.402C23.0621 36.4914 22.9685 36.5558 22.8618 36.5842C22.7551 36.6126 22.6418 36.6034 22.5411 36.558C22.4405 36.5127 22.3585 36.434 22.309 36.3353C22.2596 36.2365 22.2457 36.1238 22.2697 36.016Z" fill="#9747FF"/>
</g>
<defs>
<clipPath id="clip0_683_1523">
<rect width="24" height="24" fill="white" transform="translate(13 13)"/>
</clipPath>
</defs>
</svg>
