<svg width="70" height="70" viewBox="0 0 70 70" fill="none" xmlns="http://www.w3.org/2000/svg">
<mask id="mask0_694_322" style="mask-type:luminance" maskUnits="userSpaceOnUse" x="10" y="10" width="50" height="50">
<path d="M60 10H10V60H60V10Z" fill="white"/>
</mask>
<g mask="url(#mask0_694_322)">
<path fill-rule="evenodd" clip-rule="evenodd" d="M41.925 12.3474H28.0753C26.7788 12.3474 25.7278 13.3984 25.7278 14.6948V20.446C25.7278 21.7425 26.7788 22.7935 28.0753 22.7935H41.925C43.2215 22.7935 44.2725 21.7425 44.2725 20.446V14.6948C44.2725 13.3984 43.2215 12.3474 41.925 12.3474ZM28.0753 10C25.4824 10 23.3805 12.102 23.3805 14.6948V20.446C23.3805 23.0389 25.4824 25.1408 28.0753 25.1408H41.925C44.5179 25.1408 46.6198 23.0389 46.6198 20.446V14.6948C46.6198 12.102 44.5179 10 41.925 10H28.0753ZM28.5446 47.2065H14.6948C13.3984 47.2065 12.3474 48.2575 12.3474 49.5539V55.3051C12.3474 56.6016 13.3984 57.6525 14.6948 57.6525H28.5446C29.841 57.6525 30.892 56.6016 30.892 55.3051V49.5539C30.892 48.2575 29.841 47.2065 28.5446 47.2065ZM14.6948 44.8591C12.102 44.8591 10 46.961 10 49.5539V55.3051C10 57.8979 12.102 59.9999 14.6948 59.9999H28.5446C31.1375 59.9999 33.2395 57.8979 33.2395 55.3051V49.5539C33.2395 46.961 31.1375 44.8591 28.5446 44.8591H14.6948ZM55.3051 47.2065H41.4553C40.1589 47.2065 39.1079 48.2575 39.1079 49.5539V55.3051C39.1079 56.6016 40.1589 57.6525 41.4553 57.6525H55.3051C56.6016 57.6525 57.6525 56.6016 57.6525 55.3051V49.5539C57.6525 48.2575 56.6016 47.2065 55.3051 47.2065ZM41.4553 44.8591C38.8624 44.8591 36.7605 46.961 36.7605 49.5539V55.3051C36.7605 57.8979 38.8624 59.9999 41.4553 59.9999H55.3051C57.8979 59.9999 59.9999 57.8979 59.9999 55.3051V49.5539C59.9999 46.961 57.8979 44.8591 55.3051 44.8591H41.4553Z" fill="#2DE55E"/>
<path fill-rule="evenodd" clip-rule="evenodd" d="M35 23.3213C35.6482 23.3213 36.1737 23.8468 36.1737 24.495V33.7086H43.568C47.0036 33.7086 49.7887 36.4938 49.7887 39.9293V45.9152C49.7887 46.5634 49.2632 47.0889 48.615 47.0889C47.9667 47.0889 47.4413 46.5634 47.4413 45.9152V39.9293C47.4413 37.7901 45.7072 36.0561 43.568 36.0561H26.4319C24.2927 36.0561 22.5586 37.7901 22.5586 39.9293V45.9152C22.5586 46.5634 22.0332 47.0889 21.3849 47.0889C20.7367 47.0889 20.2112 46.5634 20.2112 45.9152V39.9293C20.2112 36.4938 22.9963 33.7086 26.4319 33.7086H33.8262V24.495C33.8262 23.8468 34.3517 23.3213 35 23.3213Z" fill="#2DE55E"/>
</g>
</svg>
