<svg width="70" height="70" viewBox="0 0 70 70" fill="none" xmlns="http://www.w3.org/2000/svg">
<path d="M55.8337 10H14.1665C13.3064 9.99911 12.4546 10.1682 11.6601 10.4975C10.8655 10.8269 10.1439 11.31 9.53665 11.9191C8.92939 12.5282 8.44848 13.2513 8.12156 14.0468C7.79464 14.8424 7.62814 15.6947 7.63165 16.5547V40.1821C7.62865 41.0409 7.79568 41.8917 8.12311 42.6855C8.45054 43.4793 8.93188 44.2005 9.53938 44.8074C10.1469 45.4143 10.8685 45.8949 11.6627 46.2216C12.4568 46.5482 13.3078 46.7144 14.1665 46.7106H24.6054V52.1053H22.8989C22.1983 52.1114 21.5284 52.3938 21.0349 52.8911C20.5413 53.3885 20.264 54.0605 20.2632 54.7611V57.3927C20.2646 57.7371 20.3339 58.0779 20.4671 58.3955C20.6004 58.7131 20.795 59.0012 21.0399 59.2434C21.2847 59.4857 21.575 59.6772 21.894 59.807C22.213 59.9369 22.5545 60.0025 22.8989 60.0001H47.1013C47.4457 60.0025 47.7872 59.9369 48.1062 59.807C48.4252 59.6772 48.7155 59.4857 48.9603 59.2434C49.2052 59.0012 49.3998 58.7131 49.5331 58.3955C49.6664 58.0779 49.7356 57.7371 49.737 57.3927V54.7611C49.7362 54.0605 49.4589 53.3885 48.9654 52.8911C48.4718 52.3938 47.8019 52.1114 47.1013 52.1053H45.3949V46.7106H55.8337C56.6924 46.7144 57.5434 46.5482 58.3375 46.2216C59.1317 45.8949 59.8533 45.4143 60.4608 44.8074C61.0683 44.2005 61.5497 43.4793 61.8771 42.6855C62.2045 41.8917 62.3716 41.0409 62.3686 40.1821V16.5547C62.3721 15.6947 62.2056 14.8424 61.8786 14.0468C61.5517 13.2513 61.0708 12.5282 60.4636 11.9191C59.8563 11.31 59.1347 10.8269 58.3401 10.4975C57.5456 10.1682 56.6938 9.99911 55.8337 10ZM47.1029 57.3685H22.8948V54.7369H47.1013L47.1029 57.3685ZM42.7633 52.1053H27.2369V46.7106H42.7633V52.1053ZM59.8686 40.2632C59.8686 41.3101 59.4527 42.3141 58.7124 43.0544C57.9721 43.7947 56.9681 44.2106 55.9212 44.2106H14.2106C13.1637 44.2106 12.1597 43.7947 11.4194 43.0544C10.6791 42.3141 10.2632 41.3101 10.2632 40.2632V16.579C10.2632 15.5321 10.6791 14.528 11.4194 13.7877C12.1597 13.0475 13.1637 12.6316 14.2106 12.6316H55.9212C56.9681 12.6316 57.9721 13.0475 58.7124 13.7877C59.4527 14.528 59.8686 15.5321 59.8686 16.579V40.2632Z" fill="#2D7FFF"/>
<path d="M39.3422 25.2629C39.3422 24.9139 39.2036 24.5792 38.9568 24.3325C38.71 24.0857 38.3754 23.9471 38.0264 23.9471H32.1053C31.7564 23.9471 31.4217 24.0857 31.1749 24.3325C30.9282 24.5792 30.7895 24.9139 30.7895 25.2629V39.4734C30.7895 39.8224 30.9282 40.1571 31.1749 40.4038C31.4217 40.6506 31.7564 40.7892 32.1053 40.7892H38.0264C38.3754 40.7892 38.71 40.6506 38.9568 40.4038C39.2036 40.1571 39.3422 39.8224 39.3422 39.4734V25.2629ZM36.579 38.1576H33.4211V26.5787H36.579V38.1576ZM49.3422 18.4208C49.3422 18.0718 49.2036 17.7371 48.9568 17.4904C48.7101 17.2436 48.3754 17.105 48.0264 17.105H42.1054C41.7564 17.105 41.4217 17.2436 41.1749 17.4904C40.9282 17.7371 40.7896 18.0718 40.7896 18.4208V39.4734C40.7896 39.8224 40.9282 40.1571 41.1749 40.4038C41.4217 40.6506 41.7564 40.7892 42.1054 40.7892H48.0264C48.3754 40.7892 48.7101 40.6506 48.9568 40.4038C49.2036 40.1571 49.3422 39.8224 49.3422 39.4734V18.4208ZM46.7106 38.1576H43.4211V19.7366H46.7106V38.1576ZM29.2106 29.8682C29.2106 29.5192 29.072 29.1845 28.8252 28.9377C28.5785 28.691 28.2438 28.5524 27.8948 28.5524H21.9737C21.6248 28.5524 21.2901 28.691 21.0433 28.9377C20.7966 29.1845 20.658 29.5192 20.658 29.8682V39.4734C20.658 39.8224 20.7966 40.1571 21.0433 40.4038C21.2901 40.6506 21.6248 40.7892 21.9737 40.7892H27.8948C28.2438 40.7892 28.5785 40.6506 28.8252 40.4038C29.072 40.1571 29.2106 39.8224 29.2106 39.4734V29.8682ZM26.579 38.1576H23.2895V31.1839H26.579V38.1576Z" fill="#2D7FFF"/>
</svg>
