<svg width="18" height="18" viewBox="0 0 18 18" fill="none" xmlns="http://www.w3.org/2000/svg">
<path d="M9 2.15039C11.0156 2.15039 12.9487 2.9507 14.374 4.37598C15.7993 5.80125 16.5996 7.73435 16.5996 9.75V15C16.5996 15.2254 16.51 15.4412 16.3506 15.6006C16.1912 15.76 15.9754 15.8496 15.75 15.8496H13.5C12.8767 15.8496 12.2786 15.6028 11.8379 15.1621C11.3972 14.7214 11.1504 14.1233 11.1504 13.5V12C11.1504 11.3767 11.3972 10.7786 11.8379 10.3379C12.2786 9.89718 12.8767 9.65039 13.5 9.65039H14.8975C14.8717 8.12167 14.2548 6.66108 13.1719 5.57812C12.0654 4.47166 10.5648 3.84961 9 3.84961C7.43522 3.84961 5.93459 4.47166 4.82812 5.57812C3.74517 6.66108 3.12833 8.12167 3.10254 9.65039H4.5C5.12326 9.65039 5.7214 9.89718 6.16211 10.3379C6.60282 10.7786 6.84961 11.3767 6.84961 12V13.5C6.84961 14.1233 6.60282 14.7214 6.16211 15.1621C5.7214 15.6028 5.12326 15.8496 4.5 15.8496H2.25C2.02457 15.8496 1.80882 15.76 1.64941 15.6006C1.49001 15.4412 1.40039 15.2254 1.40039 15V9.75C1.40039 7.73435 2.2007 5.80125 3.62598 4.37598C4.3317 3.67025 5.16972 3.11045 6.0918 2.72852C7.01382 2.34662 8.00201 2.15039 9 2.15039ZM13.5 11.3496C13.3276 11.3496 13.1619 11.4181 13.04 11.54C12.9181 11.6619 12.8496 11.8276 12.8496 12V13.5C12.8496 13.6724 12.9181 13.8381 13.04 13.96C13.1619 14.0819 13.3276 14.1504 13.5 14.1504H14.9004V11.3496H13.5ZM3.09961 14.1504H4.5C4.67239 14.1504 4.83806 14.0819 4.95996 13.96C5.08186 13.8381 5.15039 13.6724 5.15039 13.5V12C5.15039 11.8276 5.08186 11.6619 4.95996 11.54C4.83806 11.4181 4.67239 11.3496 4.5 11.3496H3.09961V14.1504Z" fill="white" stroke="white" stroke-width="0.2"/>
</svg>
