<svg width="80" height="70" viewBox="0 0 80 70" fill="none" xmlns="http://www.w3.org/2000/svg">
<path d="M23.334 0C27.503 0.000154394 30.8827 3.37981 30.8828 7.54883C30.8828 7.7806 30.8701 8.00988 30.8496 8.23633C30.887 8.23511 30.9247 8.23815 30.9619 8.24609L56.8389 13.792C56.8836 13.8015 56.9254 13.8192 56.9648 13.8408C57.0802 9.58764 60.4127 6.17698 64.5088 6.17676C68.6779 6.17676 72.0584 9.7098 72.0586 14.0684C72.0586 17.4922 69.972 20.4053 67.0566 21.498L70.6309 33.7705C71.0932 33.678 71.5705 33.6279 72.0586 33.6279C76.2275 33.6282 79.6073 37.1611 79.6074 41.5195C79.6074 45.8781 76.2276 49.4119 72.0586 49.4121C69.8195 49.4121 67.8092 48.3913 66.4268 46.7725C66.4075 46.8917 66.3432 46.9991 66.2461 47.0713L50.9805 58.4072C51.7239 59.5764 52.1562 60.963 52.1562 62.4512C52.1562 66.6202 48.7764 69.9998 44.6074 70C40.4383 70 37.0587 66.6203 37.0586 62.4512C37.0586 61.198 37.3649 60.0167 37.9053 58.9766C37.8455 59.0033 37.7811 59.0187 37.7148 59.0186C37.6295 59.0185 37.5454 58.9958 37.4727 58.9512L13.4688 44.2568C13.4168 44.225 13.3718 44.183 13.3359 44.1338C13.3121 44.101 13.2938 44.065 13.2793 44.0273C11.8948 45.6416 9.84229 46.666 7.54883 46.666C3.37971 46.6659 0 43.2863 0 39.1172C8.54076e-05 34.9481 3.37976 31.5684 7.54883 31.5684C8.55315 31.5684 9.5112 31.766 10.3877 32.1221L18.9131 14.0488C18.96 13.9494 19.0414 13.8717 19.1406 13.8262C17.1174 12.472 15.7852 10.1663 15.7852 7.54883C15.7852 3.37971 19.1648 0 23.334 0ZM31.1074 34.8545C31.0955 34.9146 31.0723 34.9725 31.0381 35.0234C31.0039 35.0743 30.9593 35.1175 30.9082 35.1514C30.8571 35.1852 30.7995 35.2091 30.7393 35.2207L15.1387 38.3643C15.113 38.3695 15.0867 38.3702 15.0605 38.3711C15.0846 38.6166 15.0977 38.8654 15.0977 39.1172C15.0977 40.7082 14.6041 42.1833 13.7637 43.4004C13.7708 43.4012 13.778 43.4012 13.7852 43.4023C13.8455 43.4119 13.903 43.434 13.9551 43.4658L37.959 58.1592C38.0454 58.212 38.1125 58.2915 38.1494 58.3857C38.1635 58.4216 38.171 58.4594 38.1758 58.4971C39.1297 56.9488 40.6266 55.7709 42.4014 55.2295C42.38 55.1923 42.3629 55.1525 42.3525 55.1104L38.8564 40.9072C38.8407 40.8477 38.8371 40.7856 38.8457 40.7246C38.8543 40.6636 38.8747 40.6047 38.9062 40.5518C38.9242 40.5217 38.9456 40.494 38.9697 40.4688C38.7919 40.4813 38.6126 40.4902 38.4316 40.4902C34.9028 40.4902 31.9393 38.0688 31.1123 34.7969C31.111 34.8161 31.1112 34.8355 31.1074 34.8545ZM61.9668 21.5166L47.5771 55.5088C48.6946 55.9875 49.673 56.7281 50.4355 57.6533L65.6904 46.3262C65.7815 46.2586 65.8935 46.2281 66.0059 46.2373C65.0658 44.9213 64.5088 43.2883 64.5088 41.5195C64.5089 38.0098 66.701 35.0363 69.7314 34.0107L66.166 21.7676C65.6327 21.8925 65.0782 21.9609 64.5088 21.9609C63.618 21.9609 62.7641 21.7972 61.9707 21.501C61.9688 21.5059 61.9689 21.5117 61.9668 21.5166ZM58.6416 19.0488C58.609 19.1004 58.5665 19.1455 58.5166 19.1807L44.7842 28.8652C45.5402 30.0411 45.9805 31.4396 45.9805 32.9414C45.9803 36.725 43.1966 39.8573 39.5654 40.4043C39.6115 40.4352 39.6522 40.4734 39.6846 40.5186C39.7204 40.5686 39.746 40.6256 39.7598 40.6855L43.2559 54.8887C43.2667 54.9326 43.2679 54.9776 43.2656 55.0225C43.7011 54.9443 44.1495 54.9023 44.6074 54.9023C45.333 54.9024 46.0341 55.0062 46.6982 55.1973L61.1094 21.1553C61.1141 21.1442 61.1205 21.1336 61.126 21.123C60.1636 20.6176 59.3181 19.9053 58.6455 19.0391C58.6437 19.042 58.6434 19.0459 58.6416 19.0488ZM19.7959 14.2168C19.8009 14.2945 19.7887 14.3726 19.7549 14.4443L11.2256 32.5244C13.0729 33.5568 14.4399 35.3421 14.9141 37.4658C14.9274 37.4619 14.9404 37.4569 14.9541 37.4541L30.5557 34.3105C30.6157 34.2979 30.678 34.2972 30.7383 34.3086C30.7985 34.32 30.856 34.3433 30.9072 34.377C30.9584 34.4106 31.0028 34.4542 31.0371 34.5049C31.0429 34.5135 31.0466 34.5233 31.0518 34.5322C30.9417 34.0193 30.8828 33.4872 30.8828 32.9414C30.8828 30.3511 32.1877 28.0657 34.1758 26.7061L26.8232 14.4863C26.7846 14.4212 26.7646 14.3477 26.7607 14.2734C25.732 14.7988 24.5683 15.0976 23.334 15.0977C22.0552 15.0977 20.8514 14.778 19.7959 14.2168ZM30.7139 9.13672C30.2922 11.1062 29.1028 12.7895 27.4736 13.8604C27.5323 13.898 27.5831 13.9472 27.6201 14.0078L34.9746 26.2305C36.0106 25.6957 37.1854 25.3926 38.4316 25.3926C40.765 25.3926 42.8506 26.4511 44.2354 28.1143L57.9795 18.4219C58.0294 18.3867 58.0859 18.3611 58.1455 18.3477C58.1519 18.3462 58.1586 18.3459 58.165 18.3447C57.4971 17.2638 57.0751 16.0021 56.9814 14.6445C56.9093 14.6878 56.8264 14.7111 56.7412 14.7109C56.7083 14.7109 56.6757 14.7071 56.6436 14.7002L30.7676 9.1543C30.7492 9.15036 30.7315 9.14278 30.7139 9.13672Z" fill="url(#paint0_linear_683_1418)"/>
<defs>
<linearGradient id="paint0_linear_683_1418" x1="48.4617" y1="35.5385" x2="13.4617" y2="9.69218" gradientUnits="userSpaceOnUse">
<stop stop-color="#9747FF"/>
<stop offset="1" stop-color="#FF09F4"/>
</linearGradient>
</defs>
</svg>
