<svg width="74" height="65" viewBox="0 0 74 65" fill="none" xmlns="http://www.w3.org/2000/svg">
<path d="M21.667 0C25.5384 0 28.6768 3.13838 28.6768 7.00977C28.6768 7.22511 28.6655 7.43805 28.6465 7.64844C28.6812 7.64734 28.7164 7.64983 28.751 7.65723L52.7783 12.8066C52.8202 12.8155 52.8596 12.8323 52.8965 12.8525C53.0034 8.90289 56.0976 5.73536 59.9014 5.73535C63.7727 5.73535 66.911 9.01624 66.9111 13.0635C66.9111 16.2432 64.9734 18.9486 62.2656 19.9629L65.5859 31.3574C66.0151 31.2716 66.458 31.2256 66.9111 31.2256C70.7824 31.2256 73.9208 34.5065 73.9209 38.5537C73.9209 42.6011 70.7825 45.8828 66.9111 45.8828C64.8319 45.8828 62.9654 44.9349 61.6816 43.4316C61.6637 43.5424 61.604 43.6419 61.5137 43.709L47.3389 54.2354C48.0292 55.321 48.4307 56.6084 48.4307 57.9902C48.4307 61.8616 45.2923 65 41.4209 65C37.5495 65 34.4111 61.8616 34.4111 57.9902C34.4111 56.8266 34.6955 55.7296 35.1973 54.7637C35.1419 54.7884 35.0828 54.8038 35.0215 54.8037L34.9629 54.7998C34.9042 54.7917 34.8477 54.7714 34.7969 54.7402L12.5068 41.0957C12.4586 41.0661 12.4161 41.0272 12.3828 40.9814C12.3608 40.9512 12.3445 40.9176 12.3311 40.8828C11.0454 42.3818 9.1394 43.333 7.00977 43.333C3.13838 43.333 0 40.1946 0 36.3232C3.71427e-06 32.4519 3.13838 29.3135 7.00977 29.3135C7.94222 29.3135 8.83171 29.4966 9.64551 29.8271L17.5625 13.0449C17.6061 12.9527 17.6813 12.8801 17.7734 12.8379C15.8949 11.5804 14.6572 9.44012 14.6572 7.00977C14.6572 3.13838 17.7956 7.69004e-06 21.667 0ZM28.8857 32.3652C28.8747 32.421 28.853 32.4742 28.8213 32.5215C28.7896 32.5687 28.7486 32.6092 28.7012 32.6406C28.6537 32.6721 28.5999 32.6943 28.5439 32.7051L14.0576 35.624C14.0337 35.6289 14.0088 35.6301 13.9844 35.6309C14.0067 35.8587 14.0195 36.0896 14.0195 36.3232C14.0195 37.801 13.5601 39.1704 12.7793 40.3008C12.7863 40.3015 12.7938 40.3016 12.8008 40.3027C12.8567 40.3116 12.9107 40.3308 12.959 40.3604L35.248 54.0049C35.3282 54.054 35.3896 54.1283 35.4238 54.2158C35.4369 54.2493 35.4438 54.2841 35.4482 54.3193C36.334 52.8813 37.7247 51.788 39.373 51.2852C39.353 51.2504 39.3369 51.2133 39.3271 51.1738L36.0811 37.9854C36.0665 37.93 36.0623 37.8721 36.0703 37.8154C36.0783 37.7589 36.0977 37.7044 36.127 37.6553C36.1438 37.627 36.1638 37.6008 36.1865 37.5771C36.0213 37.5888 35.8547 37.5977 35.6865 37.5977C32.4095 37.5976 29.6583 35.3491 28.8906 32.3105C28.8894 32.3288 28.8893 32.3472 28.8857 32.3652ZM57.54 19.9795L44.1787 51.5439C45.2163 51.9884 46.125 52.676 46.833 53.5352L60.998 43.0166C61.0825 42.954 61.1868 42.9261 61.291 42.9346C60.4182 41.7126 59.9014 40.1961 59.9014 38.5537C59.9015 35.2946 61.9369 32.5332 64.751 31.5811L61.4395 20.2119C60.9443 20.3279 60.43 20.3926 59.9014 20.3926C59.0741 20.3926 58.2808 20.2409 57.5439 19.9658C57.5422 19.9702 57.5419 19.9751 57.54 19.9795ZM54.4531 17.6885C54.4229 17.7363 54.3832 17.7779 54.3369 17.8105L41.585 26.8037C42.2869 27.8955 42.6962 29.1935 42.6963 30.5879C42.6963 34.1014 40.1112 37.0107 36.7393 37.5186C36.782 37.5473 36.8196 37.5831 36.8496 37.625C36.8829 37.6714 36.9072 37.7237 36.9199 37.7793L40.166 50.9678C40.1761 51.0087 40.1779 51.0509 40.1758 51.0928C40.58 51.0203 40.9958 50.9805 41.4209 50.9805C42.0946 50.9805 42.7456 51.0775 43.3623 51.2549L56.7441 19.6436C56.7485 19.6333 56.7547 19.6241 56.7598 19.6143C55.8662 19.1449 55.0816 18.483 54.457 17.6787C54.4553 17.6816 54.4549 17.6856 54.4531 17.6885ZM18.3818 13.2021C18.3864 13.2741 18.3751 13.3467 18.3438 13.4131L10.4238 30.2012C12.139 31.1597 13.4082 32.8174 13.8486 34.7891C13.8609 34.7854 13.8731 34.7809 13.8857 34.7783L28.373 31.8594C28.4287 31.8477 28.4861 31.8469 28.542 31.8574C28.5979 31.868 28.6516 31.8897 28.6992 31.9209C28.7469 31.9522 28.7884 31.9929 28.8203 32.04C28.8259 32.0482 28.829 32.0579 28.834 32.0664C28.7317 31.5898 28.6768 31.0951 28.6768 30.5879C28.6768 28.1826 29.8883 26.0603 31.7344 24.7979L24.9072 13.4512C24.8713 13.3907 24.8532 13.3229 24.8496 13.2539C23.8942 13.7418 22.8134 14.0195 21.667 14.0195C20.4797 14.0195 19.3619 13.7232 18.3818 13.2021ZM28.5195 8.48438C28.1279 10.3131 27.0236 11.8758 25.5107 12.8701C25.5654 12.9051 25.613 12.9505 25.6475 13.0068L32.4766 24.3574C33.4386 23.8608 34.5293 23.5781 35.6865 23.5781C37.8534 23.5781 39.7903 24.5618 41.0762 26.1064L53.8379 17.1055C53.8842 17.0728 53.9369 17.0496 53.9922 17.0371C53.9983 17.0357 54.0046 17.0353 54.0107 17.0342C53.3905 16.0305 52.9981 14.8592 52.9111 13.5986C52.8443 13.6387 52.7675 13.6603 52.6885 13.6602C52.6578 13.6601 52.6266 13.6568 52.5967 13.6504L28.5693 8.5C28.5522 8.49632 28.5359 8.49004 28.5195 8.48438Z" fill="url(#paint0_linear_169_241)"/>
<defs>
<linearGradient id="paint0_linear_169_241" x1="36.9604" y1="0" x2="36.9604" y2="65" gradientUnits="userSpaceOnUse">
<stop stop-color="#FCE172"/>
<stop offset="1" stop-color="#FF09F4"/>
</linearGradient>
</defs>
</svg>
