<svg width="50" height="50" viewBox="0 0 50 50" fill="none" xmlns="http://www.w3.org/2000/svg">
<circle cx="25" cy="25" r="24.5" stroke="#FF09F4"/>
<path d="M34 15.25H31C30.0335 15.25 29.25 16.0335 29.25 17V33C29.25 33.9665 30.0335 34.75 31 34.75H34C34.9665 34.75 35.75 33.9665 35.75 33V17C35.75 16.0335 34.9665 15.25 34 15.25Z" fill="#FF09F4"/>
<path d="M26.5 19.25H23.5C22.5335 19.25 21.75 20.0335 21.75 21V33C21.75 33.9665 22.5335 34.75 23.5 34.75H26.5C27.4665 34.75 28.25 33.9665 28.25 33V21C28.25 20.0335 27.4665 19.25 26.5 19.25Z" fill="#FF09F4"/>
<path d="M19 23.25H16C15.0335 23.25 14.25 24.0335 14.25 25V33C14.25 33.9665 15.0335 34.75 16 34.75H19C19.9665 34.75 20.75 33.9665 20.75 33V25C20.75 24.0335 19.9665 23.25 19 23.25Z" fill="#FF09F4"/>
</svg>
