<svg width="38" height="38" viewBox="0 0 38 38" fill="none" xmlns="http://www.w3.org/2000/svg">
<path d="M17.343 10.94C17.433 10.398 17.903 10 18.453 10H19.546C20.096 10 20.566 10.398 20.656 10.94L20.805 11.834C20.875 12.258 21.189 12.598 21.585 12.764C21.983 12.928 22.44 12.906 22.79 12.656L23.527 12.129C23.7438 11.9741 24.0085 11.9011 24.274 11.923C24.5396 11.945 24.7887 12.0605 24.977 12.249L25.75 13.023C26.14 13.412 26.19 14.025 25.87 14.473L25.343 15.21C25.093 15.56 25.071 16.016 25.236 16.414C25.401 16.811 25.741 17.124 26.166 17.194L27.059 17.344C27.602 17.434 27.999 17.903 27.999 18.453V19.547C27.999 20.097 27.602 20.567 27.059 20.657L26.165 20.806C25.741 20.876 25.401 21.189 25.236 21.586C25.071 21.984 25.093 22.44 25.343 22.79L25.87 23.528C26.19 23.975 26.139 24.588 25.75 24.978L24.976 25.751C24.7877 25.9392 24.5388 26.0546 24.2735 26.0765C24.0082 26.0985 23.7437 26.0257 23.527 25.871L22.789 25.344C22.439 25.094 21.983 25.072 21.586 25.237C21.188 25.402 20.876 25.742 20.805 26.166L20.656 27.06C20.566 27.602 20.096 28 19.546 28H18.452C17.902 28 17.433 27.602 17.342 27.06L17.194 26.166C17.123 25.742 16.81 25.402 16.413 25.236C16.015 25.072 15.559 25.094 15.209 25.344L14.471 25.871C14.024 26.191 13.411 26.14 13.021 25.751L12.248 24.977C12.0596 24.7887 11.944 24.5395 11.9221 24.274C11.9001 24.0085 11.9731 23.7438 12.128 23.527L12.655 22.79C12.905 22.44 12.927 21.984 12.763 21.586C12.598 21.189 12.257 20.876 11.833 20.806L10.939 20.656C10.397 20.566 9.99902 20.096 9.99902 19.547V18.453C9.99902 17.903 10.397 17.433 10.939 17.343L11.833 17.194C12.257 17.124 12.598 16.811 12.763 16.414C12.928 16.016 12.906 15.56 12.655 15.21L12.129 14.472C11.9741 14.2552 11.9011 13.9905 11.9231 13.725C11.945 13.4595 12.0606 13.2103 12.249 13.022L13.022 12.249C13.2104 12.0605 13.4595 11.945 13.725 11.923C13.9905 11.9011 14.2553 11.9741 14.472 12.129L15.209 12.656C15.559 12.906 16.016 12.928 16.413 12.763C16.81 12.598 17.123 12.258 17.193 11.834L17.343 10.94Z" stroke="#FCE172" stroke-width="1.5" stroke-linecap="round" stroke-linejoin="round"/>
<path d="M22 19C22 19.7956 21.6839 20.5587 21.1213 21.1213C20.5587 21.6839 19.7956 22 19 22C18.2044 22 17.4413 21.6839 16.8787 21.1213C16.3161 20.5587 16 19.7956 16 19C16 18.2044 16.3161 17.4413 16.8787 16.8787C17.4413 16.3161 18.2044 16 19 16C19.7956 16 20.5587 16.3161 21.1213 16.8787C21.6839 17.4413 22 18.2044 22 19Z" stroke="#FCE172" stroke-width="1.5" stroke-linecap="round" stroke-linejoin="round"/>
<path d="M10 0.5H28C33.2467 0.5 37.5 4.7533 37.5 10V28C37.5 33.2467 33.2467 37.5 28 37.5H10C4.7533 37.5 0.5 33.2467 0.5 28V10C0.5 4.7533 4.7533 0.5 10 0.5Z" stroke="url(#paint0_linear_683_1513)"/>
<defs>
<linearGradient id="paint0_linear_683_1513" x1="38" y1="19" x2="0" y2="19" gradientUnits="userSpaceOnUse">
<stop stop-color="#FCE172"/>
<stop offset="1" stop-color="#F6CC20"/>
</linearGradient>
</defs>
</svg>
