<svg width="38" height="38" viewBox="0 0 38 38" fill="none" xmlns="http://www.w3.org/2000/svg">
<rect x="0.25" y="0.25" width="37.5" height="37.5" rx="9.75" stroke="url(#paint0_linear_2010_246)" stroke-width="0.5"/>
<path d="M31 14.3846C31 13.195 30.0449 12.2307 28.8667 12.2307C27.6885 12.2307 26.7333 13.195 26.7333 14.3846C26.7333 15.3416 27.3518 16.1524 28.207 16.433C27.6408 16.8888 26.6387 17.3078 24.8666 17.3192C22.2842 17.3358 20.6744 14.89 19.8762 13.218C20.7573 12.9531 21.4 12.1294 21.4 11.1539C21.4 9.96433 20.4448 9 19.2666 9C18.0885 9 17.1333 9.96433 17.1333 11.1539C17.1333 12.1211 17.7649 12.9394 18.6343 13.2114C17.8142 14.878 16.1833 17.3192 13.6667 17.3192C11.7318 17.3192 10.6461 16.8244 10.0445 16.3323C10.7669 15.9872 11.2667 15.245 11.2667 14.3846C11.2667 13.1951 10.3115 12.2307 9.13334 12.2307C7.95514 12.2307 7 13.1951 7 14.3846C7 15.4309 7.73911 16.3026 8.71886 16.4975C8.38549 17.2462 8.0439 18.2849 8.06667 19.3654L12.3333 25.6923C12.8292 29.4449 14.6664 30 19.2667 30C23.4161 30 26.2065 29.4249 26.7333 25.6923L30.4667 19.3654C30.5608 18.2562 30.112 17.1567 29.6771 16.3771C30.4533 16.0549 31 15.2844 31 14.3846ZM18.1981 11.1538C18.1981 10.5579 18.6765 10.0749 19.2667 10.0749C19.8569 10.0749 20.3353 10.5579 20.3353 11.1538C20.3353 11.7497 19.8569 12.2327 19.2667 12.2327C18.6765 12.2327 18.1981 11.7497 18.1981 11.1538ZM8.06477 14.3846C8.06477 13.7887 8.54317 13.3057 9.13336 13.3057C9.72355 13.3057 10.202 13.7887 10.202 14.3846C10.202 14.9804 9.72355 15.4634 9.13336 15.4634C8.54317 15.4634 8.06477 14.9804 8.06477 14.3846ZM25.6667 25.6922C25.1725 28.9002 22.977 28.9164 19.2667 28.923C15.1375 28.9304 13.9269 29.1118 13.4 25.6922L9.08489 19.3909C9.0556 17.8983 9.59395 16.8076 9.59395 16.8076C9.59395 16.8076 10.1727 18.3423 13.6667 18.3423C17.1607 18.3423 19.2667 14.2499 19.2667 14.2499C19.2667 14.2499 21.8503 18.3423 24.8667 18.3423C27.883 18.3423 28.9394 16.8076 28.9394 16.8076C28.9394 16.8076 29.4485 17.8886 29.4485 19.3653L25.6667 25.6922ZM28.8667 15.4634C28.2765 15.4634 27.7981 14.9804 27.7981 14.3846C27.7981 13.7887 28.2765 13.3057 28.8667 13.3057C29.4569 13.3057 29.9353 13.7887 29.9353 14.3846C29.9353 14.9804 29.4569 15.4634 28.8667 15.4634Z" fill="#9747FF"/>
<defs>
<linearGradient id="paint0_linear_2010_246" x1="38" y1="19" x2="0" y2="19" gradientUnits="userSpaceOnUse">
<stop stop-color="#B074FF"/>
<stop offset="1" stop-color="#9747FF"/>
</linearGradient>
</defs>
</svg>
