<svg width="87" height="70" viewBox="0 0 87 70" fill="none" xmlns="http://www.w3.org/2000/svg">
<path d="M83.4619 0C84.9506 0.000219256 86.1543 1.30639 86.1543 2.91895V67.0811C86.1543 68.6936 84.9506 69.9998 83.4619 70H2.69238C1.20623 70 0 68.6937 0 67.0811V2.91895C0 1.30895 1.20623 0 2.69238 0H83.4619ZM5.21777 10.7695C3.82316 10.7695 2.69238 11.8246 2.69238 13.125V64.9521C2.69251 66.2524 3.82324 67.3076 5.21777 67.3076H80.9385C82.333 67.3076 83.4637 66.2524 83.4639 64.9521V13.125C83.4639 11.8246 82.3331 10.7695 80.9385 10.7695H5.21777Z" fill="url(#paint0_linear_683_1426)"/>
<path d="M26.923 5.38469C26.923 6.09873 26.6393 6.78353 26.1344 7.28844C25.6295 7.79334 24.9447 8.077 24.2307 8.077C23.5166 8.077 22.8318 7.79334 22.3269 7.28844C21.822 6.78353 21.5384 6.09873 21.5384 5.38469C21.5384 4.67065 21.822 3.98585 22.3269 3.48094C22.8318 2.97604 23.5166 2.69238 24.2307 2.69238C24.9447 2.69238 25.6295 2.97604 26.1344 3.48094C26.6393 3.98585 26.923 4.67065 26.923 5.38469ZM18.8461 5.38469C18.8461 6.09873 18.5624 6.78353 18.0575 7.28844C17.5526 7.79334 16.8678 8.077 16.1538 8.077C15.4397 8.077 14.7549 7.79334 14.25 7.28844C13.7451 6.78353 13.4614 6.09873 13.4614 5.38469C13.4614 4.67065 13.7451 3.98585 14.25 3.48094C14.7549 2.97604 15.4397 2.69238 16.1538 2.69238C16.8678 2.69238 17.5526 2.97604 18.0575 3.48094C18.5624 3.98585 18.8461 4.67065 18.8461 5.38469ZM10.7691 5.38469C10.7691 6.09873 10.4855 6.78353 9.98058 7.28844C9.47567 7.79334 8.79087 8.077 8.07683 8.077C7.36278 8.077 6.67798 7.79334 6.17308 7.28844C5.66817 6.78353 5.38452 6.09873 5.38452 5.38469C5.38452 4.67065 5.66817 3.98585 6.17308 3.48094C6.67798 2.97604 7.36278 2.69238 8.07683 2.69238C8.79087 2.69238 9.47567 2.97604 9.98058 3.48094C10.4855 3.98585 10.7691 4.67065 10.7691 5.38469Z" fill="#030304"/>
<path d="M32.308 38.1412C32.0314 38.1411 31.7616 38.0559 31.5351 37.897C31.3087 37.7382 31.1367 37.5134 31.0424 37.2534C30.9482 36.9933 30.9364 36.7105 31.0085 36.4435C31.0807 36.1765 31.2333 35.9382 31.4457 35.7609L42.2149 26.7866C42.4733 26.572 42.8024 26.4615 43.1379 26.4768C43.4734 26.492 43.7912 26.6318 44.029 26.8689L48.4619 31.3018L56.4845 23.2792C56.7372 23.0283 57.0791 22.8878 57.4352 22.8884C57.7914 22.8891 58.1327 23.0308 58.3846 23.2827C58.6364 23.5345 58.7781 23.8759 58.7788 24.232C58.7794 24.5881 58.6389 24.93 58.388 25.1827L49.4137 34.1571C49.2887 34.2821 49.1403 34.3813 48.977 34.449C48.8137 34.5166 48.6387 34.5515 48.4619 34.5515C48.2851 34.5515 48.1101 34.5166 47.9468 34.449C47.7835 34.3813 47.6351 34.2821 47.5101 34.1571L42.9949 29.6419L33.1704 37.8292C32.9284 38.0311 32.6232 38.1415 32.308 38.1412Z" fill="url(#paint1_linear_683_1426)"/>
<path d="M57.4361 30.9617C57.0791 30.9616 56.7367 30.8197 56.4843 30.5673C56.2319 30.3149 56.09 29.9725 56.0899 29.6155V25.5771H52.0515C51.6944 25.5771 51.352 25.4352 51.0996 25.1828C50.8471 24.9303 50.7053 24.5879 50.7053 24.2309C50.7053 23.8739 50.8471 23.5315 51.0996 23.279C51.352 23.0266 51.6944 22.8848 52.0515 22.8848H57.4361C57.7931 22.8849 58.1354 23.0267 58.3878 23.2792C58.6403 23.5316 58.7821 23.8739 58.7822 24.2309V29.6155C58.7821 29.9725 58.6403 30.3149 58.3878 30.5673C58.1354 30.8197 57.7931 30.9616 57.4361 30.9617ZM55.6412 54.295C55.2842 54.2949 54.9419 54.1531 54.6894 53.9006C54.437 53.6482 54.2952 53.3059 54.2951 52.9489V36.795C54.2951 36.438 54.4369 36.0956 54.6893 35.8431C54.9418 35.5907 55.2842 35.4489 55.6412 35.4489C55.9982 35.4489 56.3406 35.5907 56.5931 35.8431C56.8455 36.0956 56.9874 36.438 56.9874 36.795V52.9489C56.9873 53.3059 56.8454 53.6482 56.593 53.9006C56.3405 54.1531 55.9982 54.2949 55.6412 54.295ZM48.4617 54.295C48.1047 54.2949 47.7624 54.1531 47.51 53.9006C47.2575 53.6482 47.1157 53.3059 47.1156 52.9489V40.3848C47.1156 40.0277 47.2574 39.6853 47.5098 39.4329C47.7623 39.1804 48.1047 39.0386 48.4617 39.0386C48.8187 39.0386 49.1611 39.1804 49.4136 39.4329C49.666 39.6853 49.8079 40.0277 49.8079 40.3848V52.9489C49.8078 53.3059 49.6659 53.6482 49.4135 53.9006C49.1611 54.1531 48.8187 54.2949 48.4617 54.295ZM41.2822 54.295C40.9252 54.2949 40.5829 54.1531 40.3305 53.9006C40.078 53.6482 39.9362 53.3059 39.9361 52.9489V43.9745C39.9361 43.6175 40.0779 43.2751 40.3304 43.0226C40.5828 42.7702 40.9252 42.6284 41.2822 42.6284C41.6393 42.6284 41.9817 42.7702 42.2341 43.0226C42.4866 43.2751 42.6284 43.6175 42.6284 43.9745V52.9489C42.6283 53.3059 42.4864 53.6482 42.234 53.9006C41.9816 54.1531 41.6392 54.2949 41.2822 54.295ZM34.1027 54.295C33.7458 54.2949 33.4034 54.1531 33.151 53.9006C32.8985 53.6482 32.7567 53.3059 32.7566 52.9489V47.5643C32.7566 47.2072 32.8984 46.8648 33.1509 46.6124C33.4033 46.3599 33.7457 46.2181 34.1027 46.2181C34.4598 46.2181 34.8022 46.3599 35.0546 46.6124C35.3071 46.8648 35.4489 47.2072 35.4489 47.5643V52.9489C35.4488 53.3059 35.3069 53.6482 35.0545 53.9006C34.8021 54.1531 34.4597 54.2949 34.1027 54.295Z" fill="url(#paint2_linear_683_1426)"/>
<path d="M59.231 59.6796H30.513C29.2044 59.6783 27.9497 59.1578 27.0243 58.2324C26.0989 57.3071 25.5785 56.0524 25.5771 54.7437V22.436C25.5771 22.079 25.719 21.7366 25.9714 21.4841C26.2239 21.2317 26.5663 21.0898 26.9233 21.0898C27.2803 21.0898 27.6227 21.2317 27.8752 21.4841C28.1276 21.7366 28.2695 22.079 28.2695 22.436V54.7437C28.27 55.3386 28.5066 55.9089 28.9272 56.3295C29.3478 56.7502 29.9182 56.9867 30.513 56.9873H59.231C59.588 56.9873 59.9304 57.1291 60.1829 57.3816C60.4353 57.634 60.5771 57.9764 60.5771 58.3334C60.5771 58.6905 60.4353 59.0329 60.1829 59.2853C59.9304 59.5378 59.588 59.6796 59.231 59.6796Z" fill="url(#paint3_linear_683_1426)"/>
<defs>
<linearGradient id="paint0_linear_683_1426" x1="43.0771" y1="0" x2="43.0771" y2="70" gradientUnits="userSpaceOnUse">
<stop stop-color="#2D7FFF"/>
<stop offset="1" stop-color="#1B4C99"/>
</linearGradient>
<linearGradient id="paint1_linear_683_1426" x1="44.8704" y1="22.8884" x2="44.8704" y2="38.1412" gradientUnits="userSpaceOnUse">
<stop stop-color="#2D7FFF"/>
<stop offset="1" stop-color="#1B4C99"/>
</linearGradient>
<linearGradient id="paint2_linear_683_1426" x1="45.7694" y1="22.8848" x2="45.7694" y2="54.295" gradientUnits="userSpaceOnUse">
<stop stop-color="#2D7FFF"/>
<stop offset="1" stop-color="#1B4C99"/>
</linearGradient>
<linearGradient id="paint3_linear_683_1426" x1="43.0771" y1="21.0898" x2="43.0771" y2="59.6796" gradientUnits="userSpaceOnUse">
<stop stop-color="#2D7FFF"/>
<stop offset="1" stop-color="#1B4C99"/>
</linearGradient>
</defs>
</svg>
