<svg width="67" height="67" viewBox="0 0 67 67" fill="none" xmlns="http://www.w3.org/2000/svg">
<path d="M33.4961 50.0117C38.5452 50.0117 42.664 50.6706 42.665 51.4785V65.5254C42.665 66.3356 38.5596 66.9922 33.4961 66.9922C30.7041 66.9922 28.204 66.7906 26.5225 66.4756V66.4775C26.5007 66.4735 26.4794 66.468 26.458 66.4639C26.4026 66.4533 26.3484 66.4415 26.2949 66.4307C26.1827 66.4079 26.0745 66.3851 25.9707 66.3613C25.8934 66.3436 25.8186 66.325 25.7461 66.3066C25.6715 66.2878 25.5996 66.2684 25.5303 66.249C25.3081 66.1868 25.1134 66.1232 24.9492 66.0557C24.886 66.0297 24.8275 66.0032 24.7734 65.9766C24.747 65.9635 24.7215 65.9507 24.6973 65.9375C24.675 65.9254 24.6541 65.9127 24.6338 65.9004C24.6218 65.8931 24.61 65.8862 24.5986 65.8789C24.5775 65.8653 24.5578 65.8516 24.5391 65.8379C24.5236 65.8265 24.5089 65.8152 24.4951 65.8037C24.4817 65.7926 24.4689 65.7817 24.457 65.7705C24.4456 65.7597 24.4347 65.7492 24.4248 65.7383C24.4131 65.7255 24.4031 65.7122 24.3936 65.6992C24.3852 65.688 24.3769 65.6773 24.3701 65.666C24.3627 65.6536 24.358 65.6404 24.3525 65.6279C24.3476 65.6167 24.3422 65.6061 24.3389 65.5947C24.3321 65.5717 24.3281 65.5487 24.3281 65.5254V51.4785C24.3282 51.4543 24.3316 51.4302 24.3389 51.4062C24.3413 51.3983 24.3454 51.3908 24.3486 51.3828C24.3554 51.3662 24.3629 51.3494 24.373 51.333C24.3773 51.3262 24.3829 51.3202 24.3877 51.3135C24.4002 51.2958 24.4143 51.2782 24.4307 51.2607C24.4352 51.2559 24.4395 51.2509 24.4443 51.2461C24.4629 51.2276 24.483 51.2087 24.5059 51.1904C24.5146 51.1835 24.5239 51.1768 24.5332 51.1699C24.5561 51.1529 24.5808 51.136 24.6074 51.1191C24.6144 51.1148 24.6217 51.1108 24.6289 51.1064C24.6603 51.0873 24.6935 51.0676 24.7295 51.0488C24.7363 51.0453 24.7431 51.0416 24.75 51.0381C24.8225 51.0012 24.9043 50.9662 24.9941 50.9307C25.06 50.9047 25.1303 50.8788 25.2051 50.8535C25.2466 50.8395 25.2897 50.8263 25.334 50.8125C25.3828 50.7973 25.4333 50.7825 25.4854 50.7676C25.6097 50.7319 25.7429 50.6968 25.8848 50.6631C25.8926 50.6612 25.9003 50.6591 25.9082 50.6572C26.0657 50.6201 26.2336 50.5844 26.4111 50.5498C26.4183 50.5484 26.4254 50.5463 26.4326 50.5449C27.5335 50.3323 29.0021 50.1696 30.6826 50.083C30.7777 50.0781 30.8734 50.0738 30.9697 50.0693C31.1606 50.0606 31.354 50.0527 31.5498 50.0459C31.6376 50.0428 31.7258 50.0398 31.8145 50.0371C31.928 50.0337 32.0423 50.03 32.1572 50.0273C32.1399 50.0283 32.1227 50.0293 32.1055 50.0303C32.5591 50.0191 33.0235 50.0117 33.4961 50.0117ZM56.4951 46.2363C57.0171 46.0808 57.5374 46.4691 57.5479 47.0059L57.8896 50.7783C57.9304 51.2275 57.5997 51.6252 57.1504 51.666C56.7009 51.7068 56.3025 51.3753 56.2617 50.9258L56.1299 49.4629C55.0658 50.9692 53.856 52.3641 52.5215 53.626C50.7815 55.2714 48.8248 56.6944 46.6982 57.8496C46.3019 58.0655 45.8048 57.9196 45.5889 57.5234C45.373 57.1271 45.5197 56.6309 45.916 56.415C47.9142 55.3296 49.7572 53.9877 51.4004 52.4336C52.6826 51.2211 53.8405 49.8804 54.8545 48.4336L53.3799 48.873C52.9464 49.002 52.4905 48.7547 52.3613 48.3213C52.2325 47.8879 52.4788 47.4318 52.9121 47.3027L56.4951 46.2363ZM9.46875 45.5889C9.86497 45.3733 10.3613 45.5199 10.5771 45.916C11.6626 47.9142 13.0045 49.7572 14.5586 51.4004C15.7711 52.6826 17.1108 53.8415 18.5576 54.8555L18.1191 53.3809C17.99 52.9474 18.2365 52.4906 18.6699 52.3613C19.1035 52.2321 19.5604 52.4795 19.6895 52.9131L20.7559 56.4961C20.9111 57.0181 20.5221 57.5384 19.9854 57.5488L16.2129 57.8906C15.7636 57.9313 15.3659 57.5999 15.3252 57.1504C15.2845 56.701 15.616 56.3035 16.0654 56.2627L17.5293 56.1299C16.023 55.0658 14.6282 53.856 13.3662 52.5215C11.7206 50.7814 10.2968 48.8251 9.1416 46.6982C8.92572 46.3019 9.0724 45.8047 9.46875 45.5889ZM9.16797 25.0059C14.2173 25.0059 18.3362 25.6647 18.3369 26.4727V40.5195C18.3363 41.3296 14.2318 41.9863 9.16895 41.9863C6.37675 41.9863 3.87596 41.7848 2.19434 41.4697V41.4717C2.17262 41.4676 2.15132 41.4621 2.12988 41.458C2.07653 41.4478 2.02429 41.4362 1.97266 41.4258C1.85659 41.4023 1.74478 41.3791 1.6377 41.3545C1.56549 41.3379 1.4957 41.3198 1.42773 41.3027C1.34902 41.2829 1.27305 41.2636 1.2002 41.2432C0.978794 41.1811 0.784786 41.1171 0.621094 41.0498C0.557907 41.0238 0.499354 40.9974 0.445312 40.9707C0.41885 40.9576 0.393355 40.9449 0.369141 40.9316C0.345964 40.919 0.32382 40.9063 0.302734 40.8936C0.291638 40.8868 0.281018 40.8798 0.270508 40.873C0.249421 40.8595 0.229638 40.8458 0.210938 40.832C0.195454 40.8207 0.180816 40.8093 0.166992 40.7979C0.153571 40.7867 0.140744 40.7759 0.128906 40.7646C0.117864 40.7542 0.107304 40.7439 0.0976562 40.7334C0.0805788 40.7147 0.0663562 40.6956 0.0537109 40.6768C0.0518866 40.674 0.0495825 40.6717 0.0478516 40.6689L0.0380859 40.6543C0.0306324 40.6412 0.0258001 40.6274 0.0205078 40.6143C0.017068 40.6057 0.013258 40.5975 0.0107422 40.5889C0.00400833 40.5658 1.90605e-05 40.5428 0 40.5195V26.4727C1.97827e-05 26.4485 0.00347599 26.4243 0.0107422 26.4004C0.0110427 26.3994 0.0114061 26.3984 0.0117188 26.3975L0.0390625 26.3359C0.0411653 26.3323 0.0436298 26.3288 0.0458984 26.3252C0.0482298 26.3215 0.0512061 26.3182 0.0537109 26.3145C0.0672904 26.2943 0.0838959 26.2748 0.102539 26.2549C0.108125 26.2489 0.114085 26.2432 0.120117 26.2373C0.138954 26.2187 0.159467 26.2 0.182617 26.1816C0.187473 26.1778 0.192223 26.1737 0.197266 26.1699C0.314396 26.0809 0.48228 25.9963 0.695312 25.9141C0.728148 25.9014 0.761902 25.8885 0.796875 25.876C0.875067 25.848 0.958279 25.82 1.04688 25.793C1.07967 25.783 1.11328 25.7735 1.14746 25.7637C1.26887 25.7287 1.3988 25.6943 1.53711 25.6611C1.55525 25.6568 1.57337 25.6518 1.5918 25.6475C2.73962 25.3785 4.43196 25.173 6.41504 25.0732C6.45656 25.0711 6.49827 25.0704 6.54004 25.0684C6.76379 25.0577 6.99111 25.048 7.22168 25.04C7.30944 25.037 7.39766 25.0339 7.48633 25.0312C7.59987 25.0279 7.71413 25.0242 7.8291 25.0215C7.81181 25.0224 7.79456 25.0235 7.77734 25.0244C8.231 25.0133 8.69539 25.0059 9.16797 25.0059ZM57.8242 25.0059C62.8733 25.0059 66.9915 25.6648 66.9922 26.4727V40.5195C66.9915 41.3296 62.8871 41.9863 57.8242 41.9863C55.032 41.9863 52.5312 41.7847 50.8496 41.4697V41.4717C50.8282 41.4677 50.8073 41.4621 50.7861 41.458C50.7288 41.447 50.6726 41.4351 50.6172 41.4238C50.507 41.4015 50.4008 41.3789 50.2988 41.3555C50.2229 41.338 50.1494 41.3197 50.0781 41.3018C50.0011 41.2824 49.9268 41.2632 49.8555 41.2432C49.6392 41.1825 49.4494 41.1194 49.2881 41.0537C49.2148 41.0239 49.1471 40.9946 49.0859 40.9639C49.0708 40.9563 49.0564 40.9481 49.042 40.9404C49.0127 40.9248 48.9851 40.9094 48.959 40.8936C48.9483 40.8871 48.9379 40.8805 48.9277 40.874C48.9021 40.8576 48.8785 40.8409 48.8564 40.8242C48.8471 40.8172 48.8378 40.8108 48.8291 40.8037C48.8119 40.7897 48.796 40.7758 48.7812 40.7617C48.7713 40.7522 48.7617 40.743 48.7529 40.7334C48.7359 40.7147 48.7216 40.6956 48.709 40.6768C48.7072 40.674 48.7049 40.6717 48.7031 40.6689L48.6934 40.6543C48.6859 40.6412 48.6811 40.6274 48.6758 40.6143C48.6723 40.6057 48.6685 40.5975 48.666 40.5889C48.6593 40.5658 48.6553 40.5428 48.6553 40.5195V26.4727C48.6553 26.4485 48.6588 26.4243 48.666 26.4004C48.6663 26.3994 48.6667 26.3984 48.667 26.3975L48.6943 26.3359C48.6964 26.3323 48.6989 26.3288 48.7012 26.3252C48.7035 26.3215 48.7065 26.3182 48.709 26.3145C48.7223 26.2946 48.7386 26.2755 48.7568 26.2559C48.7626 26.2497 48.7682 26.2434 48.7744 26.2373C48.7934 26.2186 48.8145 26.2001 48.8379 26.1816C48.8415 26.1788 48.8449 26.1757 48.8486 26.1729C48.9659 26.0828 49.1352 25.9973 49.3506 25.9141C49.3834 25.9014 49.4172 25.8885 49.4521 25.876C49.5303 25.848 49.6136 25.82 49.7021 25.793C49.7349 25.783 49.7686 25.7735 49.8027 25.7637C49.9241 25.7287 50.0541 25.6943 50.1924 25.6611C50.2105 25.6568 50.2287 25.6527 50.2471 25.6484C51.3949 25.3795 53.0871 25.173 55.0703 25.0732C55.1118 25.0711 55.1535 25.0704 55.1953 25.0684C55.4203 25.0576 55.649 25.048 55.8809 25.04C55.9664 25.0371 56.0523 25.0338 56.1387 25.0312C56.2532 25.0278 56.3684 25.0242 56.4844 25.0215C56.4668 25.0224 56.4492 25.0234 56.4316 25.0244C56.8858 25.0133 57.3511 25.0059 57.8242 25.0059ZM50.7773 9.10156C51.2267 9.06094 51.6243 9.39244 51.665 9.8418C51.7058 10.2912 51.3742 10.6888 50.9248 10.7295L49.4609 10.8623C50.9673 11.9264 52.362 13.1362 53.624 14.4707C55.2696 16.2108 56.6934 18.1671 57.8486 20.2939C58.0645 20.6903 57.9178 21.1874 57.5215 21.4033C57.1252 21.619 56.629 21.4725 56.4131 21.0762C55.3277 19.078 53.9857 17.2352 52.4316 15.5918C51.2191 14.3096 49.8794 13.1508 48.4326 12.1367L48.8711 13.6113C49.0003 14.0448 48.7538 14.5016 48.3203 14.6309C47.8869 14.76 47.4301 14.5134 47.3008 14.0801L46.2344 10.4971C46.0788 9.97494 46.468 9.45375 47.0049 9.44336L50.7773 9.10156ZM20.2939 9.14258C20.6903 8.92679 21.1864 9.07251 21.4023 9.46875C21.6182 9.86523 21.4715 10.3622 21.0752 10.5781C19.0773 11.6634 17.235 13.0047 15.5918 14.5586C14.3096 15.7712 13.1508 17.1117 12.1367 18.5586L13.6113 18.1191C14.0448 17.99 14.5007 18.2374 14.6299 18.6709C14.7589 19.1044 14.5126 19.5604 14.0791 19.6895L10.4961 20.7559C9.97407 20.9114 9.4538 20.5231 9.44336 19.9863L9.10156 16.2139C9.06082 15.7645 9.39227 15.3669 9.8418 15.3262C10.2912 15.2856 10.6888 15.617 10.7295 16.0664L10.8613 17.5293C11.9254 16.023 13.1354 14.6281 14.4697 13.3662C16.2098 11.7206 18.1669 10.2978 20.2939 9.14258ZM33.4961 0C38.5457 0 42.6648 0.658816 42.665 1.4668V15.5137C42.6639 16.3237 38.5589 16.9805 33.4961 16.9805C30.7041 16.9804 28.204 16.7788 26.5225 16.4639V16.4658C26.5007 16.4618 26.4794 16.4563 26.458 16.4521C26.4026 16.4415 26.3484 16.4298 26.2949 16.4189C26.1827 16.3962 26.0745 16.3734 25.9707 16.3496C25.8934 16.3319 25.8186 16.3132 25.7461 16.2949C25.6715 16.2761 25.5996 16.2567 25.5303 16.2373C25.301 16.1731 25.101 16.107 24.9336 16.0371C24.9265 16.0342 24.9191 16.0323 24.9121 16.0293L24.8848 16.0176C24.8696 16.0109 24.8554 16.0028 24.8408 15.9961C24.8125 15.9831 24.7849 15.9711 24.7588 15.958C24.7437 15.9504 24.7292 15.9422 24.7148 15.9346C24.6856 15.919 24.6579 15.9035 24.6318 15.8877C24.6211 15.8812 24.6107 15.8747 24.6006 15.8682C24.575 15.8517 24.5514 15.835 24.5293 15.8184C24.5204 15.8116 24.5113 15.8056 24.5029 15.7988C24.484 15.7835 24.4671 15.7675 24.4512 15.752C24.4424 15.7434 24.4337 15.7352 24.4258 15.7266C24.4125 15.7121 24.4012 15.6972 24.3906 15.6826C24.3839 15.6733 24.3767 15.6647 24.3711 15.6553C24.3628 15.6415 24.3574 15.6271 24.3516 15.6133C24.3472 15.603 24.3419 15.5934 24.3389 15.583C24.3321 15.56 24.3282 15.537 24.3281 15.5137V1.4668C24.3281 1.44259 24.3316 1.41845 24.3389 1.39453C24.3392 1.39355 24.3395 1.39258 24.3398 1.3916L24.3672 1.33008C24.3693 1.32644 24.3718 1.32297 24.374 1.31934C24.3764 1.31563 24.3793 1.31229 24.3818 1.30859C24.3954 1.28841 24.412 1.26895 24.4307 1.24902C24.4352 1.24422 24.4395 1.23916 24.4443 1.23438C24.4634 1.21527 24.4841 1.19561 24.5078 1.17676C24.5141 1.17178 24.5207 1.16707 24.5273 1.16211C24.5508 1.14441 24.5761 1.12683 24.6035 1.10938C24.6133 1.10314 24.6235 1.09703 24.6338 1.09082C24.7339 1.03041 24.8575 0.972127 25.0029 0.915039C25.0521 0.895754 25.1041 0.877268 25.1582 0.858398C25.2267 0.834488 25.2988 0.810308 25.375 0.787109C25.4078 0.777132 25.4414 0.767654 25.4756 0.757812C25.597 0.722825 25.7269 0.688431 25.8652 0.655273C25.8834 0.650925 25.9015 0.645917 25.9199 0.641602C26.8983 0.412379 28.2723 0.228834 29.8848 0.118164C29.9491 0.113724 30.014 0.110654 30.0791 0.106445C30.2955 0.0925291 30.516 0.0796511 30.7402 0.0683594C30.7827 0.0662061 30.8254 0.064556 30.8682 0.0625C31.0919 0.0518082 31.3192 0.042153 31.5498 0.0341797C31.6376 0.0311234 31.7258 0.0280394 31.8145 0.0253906C31.928 0.0220237 32.0423 0.0183156 32.1572 0.015625C32.1399 0.0165575 32.1227 0.0175958 32.1055 0.0185547C32.5591 0.00742644 33.0235 3.17774e-06 33.4961 0Z" fill="url(#paint0_linear_169_249)"/>
<defs>
<linearGradient id="paint0_linear_169_249" x1="33.4961" y1="0" x2="33.4961" y2="66.9922" gradientUnits="userSpaceOnUse">
<stop stop-color="#FCE172"/>
<stop offset="1" stop-color="#FF09F4"/>
</linearGradient>
</defs>
</svg>
