<svg width="64" height="64" viewBox="0 0 64 64" fill="none" xmlns="http://www.w3.org/2000/svg">
<circle cx="31.9444" cy="31.9444" r="31.9444" fill="white"/>
<g clip-path="url(#clip0_683_982)">
<path d="M47.4743 29.7251H45.9928C45.5847 29.7251 45.2549 30.0549 45.2549 30.463C45.2549 30.8711 45.5847 31.2009 45.9928 31.2009H47.4743C47.8823 31.2009 48.2122 30.8711 48.2122 30.463C48.2122 30.0549 47.8823 29.7251 47.4743 29.7251ZM42.4039 18.9582L41.3585 20.0036C41.0678 20.2943 41.0678 20.7583 41.3585 21.049C41.6492 21.3397 42.1132 21.3397 42.4039 21.049L43.4493 20.0036C43.74 19.7129 43.74 19.2489 43.4493 18.9582C43.1586 18.6731 42.6946 18.6731 42.4039 18.9582ZM22.5304 21.0546C22.8211 20.7639 22.8211 20.2999 22.5304 20.0092L21.4851 18.9638C21.1944 18.6731 20.7304 18.6731 20.4397 18.9638C20.149 19.2545 20.149 19.7185 20.4397 20.0092L21.4851 21.0546C21.7758 21.3397 22.2453 21.3397 22.5304 21.0546ZM17.8905 29.7251H16.4147C16.0066 29.7251 15.6768 30.0549 15.6768 30.463C15.6768 30.8711 16.0066 31.2009 16.4147 31.2009H17.8961C18.3042 31.2009 18.634 30.8711 18.634 30.463C18.634 30.0549 18.3042 29.7251 17.8905 29.7251ZM31.9445 17.1526C32.3526 17.1526 32.6824 16.8227 32.6824 16.4147V14.9332C32.6824 14.5251 32.3526 14.1953 31.9445 14.1953C31.5364 14.1953 31.2065 14.5251 31.2065 14.9332V16.4147C31.2065 16.8227 31.5364 17.1526 31.9445 17.1526ZM36.3831 43.7791H27.5058C26.6896 43.7791 26.0244 44.4387 26.0244 45.2605C26.0244 46.0767 26.684 46.7419 27.5058 46.7419H36.3831C37.1993 46.7419 37.8646 46.0823 37.8646 45.2605C37.859 44.4387 37.1993 43.7791 36.3831 43.7791ZM37.859 39.3404H26.03C25.2138 39.3404 24.5485 40 24.5485 40.8218C24.5485 41.638 25.2082 42.3032 26.03 42.3032H37.8646C38.6807 42.3032 39.346 41.6436 39.346 40.8218C39.3404 40 38.6752 39.3404 37.859 39.3404ZM31.2065 49.6936H32.688C33.7781 49.6936 34.7172 49.0954 35.2315 48.2122H28.663C29.1717 49.0954 30.1109 49.6936 31.2065 49.6936ZM31.9445 23.0671C28.6797 23.0671 26.03 25.7225 26.03 28.9816C26.03 32.2407 28.6797 34.9017 31.9445 34.9017C35.2092 34.9017 37.859 32.2463 37.859 28.9872C37.859 25.7281 35.2092 23.0671 31.9445 23.0671ZM35.4272 28.0312L31.732 31.7264C31.3184 32.1625 30.832 31.8718 30.6867 31.7264L29.2052 30.245C28.9145 29.9543 28.9145 29.4903 29.2052 29.1996C29.4959 28.9089 29.9599 28.9089 30.2506 29.1996L31.2065 30.1556L34.3818 26.9803C34.6725 26.6896 35.1365 26.6896 35.4272 26.9803C35.7123 27.271 35.7123 27.7406 35.4272 28.0312Z" fill="#009B5C"/>
<path d="M31.9446 18.634C25.8177 18.634 20.8535 23.5982 20.8535 29.7251C20.8535 32.9507 22.2455 35.8353 24.4425 37.859H26.0301H37.8647H39.4524C41.6493 35.8353 43.0413 32.9507 43.0413 29.7251C43.0357 23.5982 38.0716 18.634 31.9446 18.634ZM31.9446 36.3832C27.8693 36.3832 24.5487 33.0681 24.5487 28.9872C24.5487 24.9063 27.8693 21.5913 31.9446 21.5913C36.0199 21.5913 39.3406 24.9063 39.3406 28.9872C39.3406 33.0681 36.0199 36.3832 31.9446 36.3832Z" fill="#009B5C"/>
</g>
<defs>
<clipPath id="clip0_683_982">
<rect width="35.7778" height="35.7778" fill="white" transform="translate(14.0557 14.0555)"/>
</clipPath>
</defs>
</svg>
