<svg width="64" height="64" viewBox="0 0 64 64" fill="none" xmlns="http://www.w3.org/2000/svg">
<circle cx="31.9444" cy="31.9444" r="31.9444" fill="white"/>
<path d="M27.3106 23.7716C27.3106 25.861 28.8102 27.6099 30.7875 28.0003V32.0338H25.1713V32.8646C25.1713 34.3226 23.9833 35.5106 22.5253 35.5106C21.0673 35.5106 19.8792 34.3226 19.8792 32.8646V32.0338H14.0554C14.0554 22.7952 21.5489 15.3059 30.7875 15.3059V19.5471C28.806 19.9334 27.3106 21.6822 27.3106 23.7716Z" fill="#DD8304"/>
<path d="M34.2643 41.9618C34.2643 43.4198 33.0763 44.6078 31.6182 44.6078H30.7875V50.4316C21.5466 50.4316 14.0554 42.9363 14.0554 33.6954H18.2966C18.6829 35.6727 20.4317 37.1723 22.5253 37.1723C24.6147 37.1723 26.3635 35.6727 26.754 33.6954H30.7875V39.3116H31.6182C33.0763 39.3116 34.2643 40.4996 34.2643 41.9618Z" fill="#DD8304"/>
<path d="M49.1769 33.6953C49.1769 42.9339 41.6875 50.4274 32.449 50.4274V46.1862C32.4864 46.1779 32.5196 46.1737 32.557 46.1654C32.5819 46.1613 32.6068 46.153 32.6317 46.1488C32.6608 46.1405 32.6941 46.1322 32.7231 46.1239C32.7522 46.1156 32.7854 46.1073 32.8145 46.099C32.8436 46.0907 32.8727 46.0824 32.9018 46.074C32.9059 46.074 32.9059 46.074 32.9101 46.0699C32.935 46.0616 32.9599 46.0533 32.9848 46.045C32.9931 46.0408 33.0014 46.0408 33.0098 46.0367C33.0305 46.0284 33.0555 46.02 33.0762 46.0159C33.0804 46.0159 33.0845 46.0117 33.0887 46.0117C33.1178 46.0034 33.1427 45.991 33.1718 45.9827C33.2008 45.9702 33.2299 45.9619 33.259 45.9494C33.2798 45.9411 33.3047 45.9328 33.3255 45.9203C33.3462 45.912 33.367 45.9037 33.3836 45.8954C33.4044 45.8871 33.4251 45.8747 33.4459 45.8663C33.4791 45.8497 33.5165 45.8331 33.5498 45.8165C33.5664 45.8082 33.583 45.7999 33.5996 45.7916C33.7575 45.7085 33.9153 45.6171 34.0607 45.5133C34.1105 45.48 34.1604 45.4426 34.2102 45.4053C34.2352 45.3886 34.2601 45.3679 34.2809 45.3513C34.3141 45.3263 34.3473 45.2973 34.3806 45.2682C34.3847 45.264 34.3889 45.2599 34.393 45.2599C34.4262 45.2308 34.4595 45.2059 34.4927 45.1768C34.5218 45.1519 34.5509 45.1228 34.5799 45.0979C34.6049 45.073 34.6298 45.048 34.6547 45.0273C34.6796 45.0023 34.7087 44.9733 34.7336 44.9483C34.7586 44.9234 34.7793 44.8985 34.8001 44.8736C34.8043 44.8694 34.8126 44.8611 34.8167 44.8569C34.8375 44.832 34.8624 44.8071 34.8832 44.7822C34.933 44.7282 34.9787 44.67 35.0244 44.6119C35.0701 44.5537 35.1158 44.4956 35.1573 44.4332C35.1781 44.4042 35.1989 44.3751 35.2196 44.3419C35.2363 44.3128 35.257 44.2837 35.2736 44.2588C35.2778 44.2546 35.282 44.2463 35.2861 44.238C35.3027 44.2089 35.3193 44.184 35.336 44.1549C35.336 44.1549 35.336 44.1508 35.3401 44.1508C35.3567 44.1259 35.3692 44.1009 35.3817 44.076C35.4024 44.0386 35.4232 43.9971 35.4481 43.9555C35.4647 43.9223 35.4813 43.8891 35.498 43.8558C35.5146 43.8268 35.527 43.7935 35.5395 43.7645C35.5437 43.7562 35.5478 43.7478 35.5478 43.7437C35.5603 43.7146 35.5769 43.6855 35.5893 43.6523C35.606 43.6191 35.6184 43.5817 35.6309 43.5485C35.6433 43.5194 35.6558 43.4861 35.6683 43.4571C35.6849 43.4114 35.7015 43.3657 35.7181 43.3158C35.7264 43.2951 35.7306 43.2743 35.7389 43.2535C35.743 43.2369 35.7514 43.2161 35.7555 43.1995C35.7638 43.1663 35.7763 43.1331 35.7846 43.0998C35.8012 43.0334 35.8178 42.9669 35.8344 42.8963C35.8344 42.8963 35.8344 42.8921 35.8344 42.888C35.8427 42.8506 35.851 42.8174 35.8552 42.78C35.8635 42.7426 35.8677 42.7052 35.876 42.6678C35.8801 42.6304 35.8884 42.5931 35.8926 42.5557C35.8967 42.5141 35.905 42.4684 35.9092 42.4269C35.9134 42.3978 35.9175 42.3687 35.9175 42.3397C35.9175 42.323 35.9217 42.3064 35.9217 42.2898C35.9258 42.2649 35.9258 42.24 35.9258 42.215C35.9258 42.2109 35.9258 42.2067 35.9258 42.1984C35.9258 42.1652 35.93 42.1361 35.93 42.1029C35.93 42.0904 35.93 42.0821 35.93 42.0697C35.93 42.0364 35.93 41.999 35.93 41.9658C35.93 39.8764 34.4346 38.1276 32.4531 37.7371V33.7036H38.0651V32.8729C38.0651 31.4148 39.2531 30.2268 40.7111 30.2268C42.1692 30.2268 43.3572 31.4148 43.3572 32.8729V33.7036H49.1769V33.6953ZM42.2273 24.0042H40.5658C40.5658 22.596 41.3425 21.3208 42.597 20.6728C43.4735 20.22 44.0218 19.3269 44.0218 18.3382C44.0218 17.6404 43.7477 16.9799 43.2534 16.4856C42.759 15.9913 42.0986 15.7171 41.4007 15.7171C39.9551 15.7171 38.7796 16.8927 38.7796 18.3382H37.118C37.118 15.9747 39.0413 14.0555 41.4007 14.0555C42.543 14.0555 43.6189 14.5 44.4289 15.31C45.2389 16.12 45.6834 17.1959 45.6834 18.3382C45.6834 19.95 44.7945 21.4122 43.3572 22.1474C42.6593 22.5129 42.2273 23.2233 42.2273 24.0042Z" fill="#DD8304"/>
<path d="M42.2272 25.4998H40.5657V27.1696H42.2272V25.4998Z" fill="#DD8304"/>
</svg>
