<svg width="50" height="50" viewBox="0 0 50 50" fill="none" xmlns="http://www.w3.org/2000/svg">
<circle cx="25" cy="25" r="24.5" stroke="#FCE172"/>
<path d="M22.75 25C22.75 23.758 23.758 22.75 25 22.75C26.242 22.75 27.25 23.758 27.25 25C27.25 26.242 26.242 27.25 25 27.25C23.758 27.25 22.75 26.242 22.75 25Z" fill="#FCE172"/>
<path fill-rule="evenodd" clip-rule="evenodd" d="M15.001 25C15.001 26.638 15.427 27.19 16.276 28.297C17.974 30.502 20.818 33.001 25 33.001C29.182 33.001 32.029 30.502 33.724 28.297C34.573 27.193 34.999 26.641 34.999 25C34.999 23.359 34.573 22.81 33.724 21.703C32.029 19.501 29.182 16.999 25 16.999C20.818 16.999 17.971 19.498 16.276 21.703C15.424 22.81 15.001 23.362 15.001 25ZM25 21.25C22.93 21.25 21.25 22.93 21.25 25C21.25 27.07 22.93 28.75 25 28.75C27.07 28.75 28.75 27.07 28.75 25C28.75 22.93 27.07 21.25 25 21.25Z" fill="#FCE172"/>
</svg>
