<svg width="38" height="38" viewBox="0 0 38 38" fill="none" xmlns="http://www.w3.org/2000/svg">
<path d="M10 0.5H28C33.2467 0.5 37.5 4.7533 37.5 10V28C37.5 33.2467 33.2467 37.5 28 37.5H10C4.7533 37.5 0.5 33.2467 0.5 28V10C0.5 4.7533 4.7533 0.5 10 0.5Z" stroke="url(#paint0_linear_2010_247)"/>
<path d="M15.25 10V11.5M11.5 15.25H10M28 15.25H26.5M11.5 19H10M28 19H26.5M11.5 22.75H10M28 22.75H26.5M15.25 26.5V28M19 10V11.5M19 26.5V28M22.75 10V11.5M22.75 26.5V28M13.75 26.5H24.25C24.8467 26.5 25.419 26.2629 25.841 25.841C26.2629 25.419 26.5 24.8467 26.5 24.25V13.75C26.5 13.1533 26.2629 12.581 25.841 12.159C25.419 11.7371 24.8467 11.5 24.25 11.5H13.75C13.1533 11.5 12.581 11.7371 12.159 12.159C11.7371 12.581 11.5 13.1533 11.5 13.75V24.25C11.5 24.8467 11.7371 25.419 12.159 25.841C12.581 26.2629 13.1533 26.5 13.75 26.5ZM14.5 14.5H23.5V23.5H14.5V14.5Z" stroke="#2D7FFF" stroke-width="1.5" stroke-linecap="round" stroke-linejoin="round"/>
<defs>
<linearGradient id="paint0_linear_2010_247" x1="38" y1="19" x2="0" y2="19" gradientUnits="userSpaceOnUse">
<stop stop-color="#045BE4"/>
<stop offset="1" stop-color="#2D7FFF"/>
</linearGradient>
</defs>
</svg>
