<svg width="70" height="70" viewBox="0 0 70 70" fill="none" xmlns="http://www.w3.org/2000/svg">
<path d="M49.5894 21.4374H48.4269C47.9662 18.2045 46.3546 15.2464 43.888 13.1063C41.4214 10.9663 38.2655 9.78809 35 9.78809C31.7345 9.78809 28.5786 10.9663 26.112 13.1063C23.6454 15.2464 22.0338 18.2045 21.5731 21.4374H20.4106C17.6014 21.4425 14.9087 22.5607 12.9223 24.5471C10.9359 26.5336 9.81762 29.2263 9.8125 32.0355V34.0892C9.81762 36.8985 10.9359 39.5912 12.9223 41.5776C14.9087 43.564 17.6014 44.6822 20.4106 44.6874C20.9245 44.6874 21.4173 44.4832 21.7806 44.1199C22.144 43.7565 22.3481 43.2637 22.3481 42.7499C22.3481 42.236 22.144 41.7432 21.7806 41.3798C21.4173 41.0165 20.9245 40.8124 20.4106 40.8124C18.6291 40.8072 16.922 40.0973 15.6623 38.8376C14.4026 37.5778 13.6926 35.8707 13.6875 34.0892V32.0355C13.6926 30.254 14.4026 28.5469 15.6623 27.2872C16.922 26.0274 18.6291 25.3175 20.4106 25.3124H23.375C23.8889 25.3124 24.3817 25.1082 24.745 24.7449C25.1084 24.3815 25.3125 23.8887 25.3125 23.3749C25.3125 20.8056 26.3331 18.3415 28.1499 16.5248C29.9667 14.708 32.4307 13.6874 35 13.6874C37.5693 13.6874 40.0333 14.708 41.8501 16.5248C43.6669 18.3415 44.6875 20.8056 44.6875 23.3749C44.6875 23.8887 44.8916 24.3815 45.255 24.7449C45.6183 25.1082 46.1111 25.3124 46.625 25.3124H49.5894C51.3709 25.3175 53.078 26.0274 54.3377 27.2872C55.5974 28.5469 56.3074 30.254 56.3125 32.0355V34.0892C56.3074 35.8707 55.5974 37.5778 54.3377 38.8376C53.078 40.0973 51.3709 40.8072 49.5894 40.8124C49.0755 40.8124 48.5827 41.0165 48.2194 41.3798C47.856 41.7432 47.6519 42.236 47.6519 42.7499C47.6519 43.2637 47.856 43.7565 48.2194 44.1199C48.5827 44.4832 49.0755 44.6874 49.5894 44.6874C52.3986 44.6822 55.0913 43.564 57.0777 41.5776C59.0641 39.5912 60.1824 36.8985 60.1875 34.0892V32.0355C60.1824 29.2263 59.0641 26.5336 57.0777 24.5471C55.0913 22.5607 52.3986 21.4425 49.5894 21.4374Z" fill="#EDA509"/>
<path d="M36.3756 29.7495C36.1914 29.5731 35.9741 29.4348 35.7363 29.3426C35.2645 29.1488 34.7355 29.1488 34.2638 29.3426C34.0259 29.4348 33.8086 29.5731 33.6244 29.7495L25.8744 37.4995C25.6928 37.6796 25.5486 37.8939 25.4503 38.13C25.3519 38.3661 25.3013 38.6193 25.3013 38.8751C25.3013 39.1309 25.3519 39.3841 25.4503 39.6202C25.5486 39.8563 25.6928 40.0706 25.8744 40.2507C26.0545 40.4323 26.2688 40.5765 26.5049 40.6748C26.741 40.7732 26.9942 40.8238 27.25 40.8238C27.5058 40.8238 27.759 40.7732 27.9951 40.6748C28.2312 40.5765 28.4455 40.4323 28.6256 40.2507L33.0625 35.7945V58.2501C33.0625 58.764 33.2666 59.2568 33.63 59.6201C33.9933 59.9835 34.4861 60.1876 35 60.1876C35.5139 60.1876 36.0067 59.9835 36.37 59.6201C36.7334 59.2568 36.9375 58.764 36.9375 58.2501V35.7945L41.3744 40.2507C41.5545 40.4323 41.7688 40.5765 42.0049 40.6748C42.241 40.7732 42.4942 40.8238 42.75 40.8238C43.0058 40.8238 43.259 40.7732 43.4951 40.6748C43.7312 40.5765 43.9455 40.4323 44.1256 40.2507C44.3072 40.0706 44.4514 39.8563 44.5497 39.6202C44.6481 39.3841 44.6987 39.1309 44.6987 38.8751C44.6987 38.6193 44.6481 38.3661 44.5497 38.13C44.4514 37.8939 44.3072 37.6796 44.1256 37.4995L36.3756 29.7495Z" fill="#EDA509"/>
</svg>
